<svg xmlns="http://www.w3.org/2000/svg" width="165" height="55" viewBox="0 0 165 55"><polygon points="37.47 35.3 50.31 35.3 50.31 31.58 41.8 31.58 41.8 29.07 49.4 29.07 49.4 25.61 41.8 25.61 41.8 23.18 50.19 23.18 50.19 19.48 37.47 19.48 37.47 35.3" fill="#231f20"/><path d="M58.13,33.07a2.7,2.7,0,1,0-2.68,2.72,2.68,2.68,0,0,0,2.68-2.72" fill="#231f20"/><path d="M7.41,35.58c3.85,0,6.4-1.92,6.4-5.16v0c0-3-2.26-4.14-5.88-4.93-2.21-.5-2.76-.82-2.76-1.54v-.05c0-.58.52-1,1.59-1a7.78,7.78,0,0,1,4.43,1.56l2.19-3.1a10,10,0,0,0-6.51-2.1c-3.8,0-6.12,2.12-6.12,5.06v.05c0,3.23,2.59,4.18,6,4.95,2.17.52,2.7.86,2.7,1.54v0c0,.68-.64,1.09-1.84,1.09A8.21,8.21,0,0,1,2.44,30L0,33a11.15,11.15,0,0,0,7.41,2.62" fill="#231f20"/><path d="M19.79,27.35V23.16h2.09c1.56,0,2.53.7,2.53,2.06v.05c0,1.24-1,2.08-2.51,2.08ZM15.41,35.3h4.38V30.78H22c3.91,0,6.78-2,6.78-5.72v0c0-3.48-2.57-5.54-6.56-5.54h-6.8Z" fill="#231f20"/><rect x="30.33" y="19.48" width="4.38" height="15.82" fill="#231f20"/><path d="M65.44,19.45H64L61.25,26h1.6l.58-1.43H66L66.6,26h1.64L65.46,19.5Zm0,3.74H64l.72-1.77Z" fill="#ec1c24"/><path d="M71.66,22.05c-1.09-.28-1.31-.41-1.31-.78s.29-.47.73-.47a2.88,2.88,0,0,1,1.61.61l.07.05.81-1.18,0-.05a3.78,3.78,0,0,0-2.42-.83,2.08,2.08,0,0,0-2.31,2c0,1.35.94,1.7,2.17,2,1.06.26,1.22.43,1.22.74s-.31.52-.83.52A2.85,2.85,0,0,1,69.5,24l-.06-.05L68.51,25l.06,0a4.11,4.11,0,0,0,2.75,1c1.49,0,2.42-.79,2.42-2.07S72.91,22.37,71.66,22.05Z" fill="#ec1c24"/><rect x="74.82" y="19.49" width="1.56" height="6.51" fill="#ec1c24"/><path d="M79.37,24.58H82L82.54,26h1.63L81.4,19.5l0-.05H80L77.19,26h1.6Zm.57-1.39.72-1.77.73,1.77Z" fill="#ec1c24"/><rect x="84.61" y="22.37" width="2.96" height="1.49" fill="#ec1c24"/><path d="M90.15,24.1h1a2.34,2.34,0,0,0,2.65-2.33,2.25,2.25,0,0,0-2.51-2.28H88.59V26h1.56Zm0-3.18h1c.67,0,1,.32,1,.89a.91.91,0,0,1-1,.89h-1Z" fill="#ec1c24"/><path d="M98.23,19.45h-1.4L94,26h1.61l.58-1.43H98.8L99.38,26H101L98.25,19.5Zm0,3.74H96.78l.73-1.77Z" fill="#ec1c24"/><path d="M107.26,25l0-.06-1-1,0,.05a2.23,2.23,0,0,1-1.62.73,1.93,1.93,0,0,1,0-3.84,2.26,2.26,0,0,1,1.57.7l.06.06,1-1.15-.06-.05a3.35,3.35,0,0,0-2.56-1,3.32,3.32,0,0,0-3.4,3.39,3.27,3.27,0,0,0,3.34,3.35A3.32,3.32,0,0,0,107.26,25Z" fill="#ec1c24"/><rect x="108.27" y="19.49" width="1.56" height="6.51" fill="#ec1c24"/><polygon points="112.78 23.55 115.81 23.55 115.81 22.12 112.78 22.12 112.78 20.93 116.22 20.93 116.22 19.49 111.22 19.49 111.22 26.01 112.78 26.01 112.78 23.55" fill="#ec1c24"/><rect x="117.21" y="19.49" width="1.56" height="6.51" fill="#ec1c24"/><path d="M123.22,26.12A3.32,3.32,0,0,0,125.89,25l0-.06-1-1,0,.05a2.24,2.24,0,0,1-1.62.73,1.93,1.93,0,0,1,0-3.84,2.28,2.28,0,0,1,1.57.7l.06.06,1-1.15-.06-.05a3.35,3.35,0,0,0-2.56-1,3.32,3.32,0,0,0-3.4,3.39A3.27,3.27,0,0,0,123.22,26.12Z" fill="#ec1c24"/><path d="M67.3,31a2,2,0,0,0-.57-1.51,2.6,2.6,0,0,0-1.91-.67h-3V35.3h1.56v-2h1l1.37,2h1.83L66,33A2.06,2.06,0,0,0,67.3,31Zm-3.91-.75h1.32c.38,0,1,.1,1,.84,0,.51-.38.82-1,.82H63.39Z" fill="#ec1c24"/><polygon points="69.92 32.72 72.92 32.72 72.92 31.32 69.92 31.32 69.92 30.19 73.33 30.19 73.33 28.78 68.37 28.78 68.37 35.3 73.37 35.3 73.37 33.89 69.92 33.89 69.92 32.72" fill="#ec1c24"/><polygon points="77.68 31.4 76.05 28.78 74.42 28.78 74.42 35.3 75.95 35.3 75.95 31.36 77.58 33.83 77.6 33.86 77.72 33.86 79.39 31.34 79.39 35.3 80.94 35.3 80.94 28.78 79.31 28.78 77.68 31.4" fill="#ec1c24"/><path d="M85.23,28.67a3.39,3.39,0,0,0-3.47,3.39,3.32,3.32,0,0,0,3.45,3.35A3.39,3.39,0,0,0,88.68,32,3.32,3.32,0,0,0,85.23,28.67Zm0,1.45a1.86,1.86,0,0,1,1.85,1.94A1.83,1.83,0,0,1,85.23,34,1.86,1.86,0,0,1,83.38,32,1.83,1.83,0,0,1,85.21,30.12Z" fill="#ec1c24"/><polygon points="88.81 30.23 90.75 30.23 90.75 35.3 92.31 35.3 92.31 30.23 94.24 30.23 94.24 28.78 88.81 28.78 88.81 30.23" fill="#ec1c24"/><polygon points="96.67 32.72 99.67 32.72 99.67 31.32 96.67 31.32 96.67 30.19 100.08 30.19 100.08 28.78 95.12 28.78 95.12 35.3 100.12 35.3 100.12 33.89 96.67 33.89 96.67 32.72" fill="#ec1c24"/><path d="M106.54,31.34c-1.09-.28-1.31-.41-1.31-.78s.29-.47.74-.47a2.93,2.93,0,0,1,1.61.61l.06.05.82-1.18-.06-.05a3.78,3.78,0,0,0-2.42-.83,2.08,2.08,0,0,0-2.3,2c0,1.35.94,1.7,2.17,2,1.05.27,1.22.43,1.22.74s-.31.52-.84.52a2.85,2.85,0,0,1-1.85-.75l-.06-.05-.93,1.11.06.05a4.13,4.13,0,0,0,2.75,1c1.49,0,2.42-.79,2.42-2.07S107.79,31.66,106.54,31.34Z" fill="#ec1c24"/><polygon points="111.19 32.72 114.19 32.72 114.19 31.32 111.19 31.32 111.19 30.19 114.6 30.19 114.6 28.78 109.64 28.78 109.64 35.3 114.64 35.3 114.64 33.89 111.19 33.89 111.19 32.72" fill="#ec1c24"/><polygon points="119.96 32.54 117.13 28.81 117.1 28.78 115.69 28.78 115.69 35.3 117.23 35.3 117.23 31.42 120.17 35.27 120.19 35.3 121.51 35.3 121.51 28.78 119.96 28.78 119.96 32.54" fill="#ec1c24"/><path d="M125.52,31.34c-1.1-.28-1.32-.41-1.32-.78s.29-.47.74-.47a2.9,2.9,0,0,1,1.61.61l.07.05.81-1.18-.06-.05a3.73,3.73,0,0,0-2.41-.83,2.08,2.08,0,0,0-2.31,2c0,1.35.94,1.7,2.17,2,1.05.27,1.22.43,1.22.74s-.31.52-.84.52a2.84,2.84,0,0,1-1.84-.75l-.07-.05-.92,1.11,0,.05a4.13,4.13,0,0,0,2.76,1c1.49,0,2.41-.79,2.41-2.07S126.76,31.66,125.52,31.34Z" fill="#ec1c24"/><rect x="128.68" y="28.78" width="1.56" height="6.51" fill="#ec1c24"/><polygon points="135.9 32.54 133.06 28.81 133.04 28.78 131.63 28.78 131.63 35.3 133.17 35.3 133.17 31.42 136.11 35.27 136.13 35.3 137.44 35.3 137.44 28.78 135.9 28.78 135.9 32.54" fill="#ec1c24"/><path d="M141.79,31.48v1.37h1.41v.78A2.15,2.15,0,0,1,142,34a1.93,1.93,0,0,1-.1-3.85,2.23,2.23,0,0,1,1.61.63l.07.05,1-1.18-.06-.05a3.58,3.58,0,0,0-2.55-.9,3.36,3.36,0,0,0-3.42,3.39,3.28,3.28,0,0,0,3.43,3.35,4.21,4.21,0,0,0,2.77-1l0,0V31.48Z" fill="#ec1c24"/></svg>