<svg xmlns="http://www.w3.org/2000/svg" width="165" height="55" viewBox="0 0 165 55"><path d="M120.69,22.94a.24.24,0,0,0-.22-.14h0a.11.11,0,0,1-.07-.09h0s0,0,0-.06h0l0,0h-.06a.08.08,0,0,1-.07,0l0,0s0,0,0,0a.09.09,0,0,1,0,0s0,0,0,0h-.14s0,0,0,0a.16.16,0,0,1-.16.13v.07c-.06,0-.12.08-.18.07h0l0,0,0,0s0,0,0,0l0,0s0,0,0,.05l0,0a.2.2,0,0,0,0,.11s-.08.05-.1.11,0,0,0,.06,0,0,0,0,0,0,0,0a.2.2,0,0,1-.08.12.41.41,0,0,1-.11.07l-.08,0a.3.3,0,0,1-.21,0h0s0,0,0,0,0,0,0,0v.08s0,0-.06,0a.17.17,0,0,1-.06-.06l.06,0c-.08-.06-.18-.07-.26-.13a.64.64,0,0,0-.13-.1h-.05l-.08,0a.45.45,0,0,1-.21-.1c-.06-.06-.11-.15-.18-.17s0,0,0,0,0,0,0-.06h0s-.07,0-.1,0l-.09-.08-.07,0a.42.42,0,0,1-.16-.14s0,0,0,0,0,.08-.06.07a.06.06,0,0,1,0,.09.14.14,0,0,0,0-.09s0,0-.05,0a.07.07,0,0,0,0-.06s0,0-.06-.06a.07.07,0,0,1,0-.05.08.08,0,0,0,0,0s0,0,0,0a.15.15,0,0,1,0-.16.07.07,0,0,1,0,0l0,0,0,.05a.05.05,0,0,1,0,0s0,0,0,0a.07.07,0,0,0,0,.09H117s0,0,0,.06h0l-.16-.29s0,0,0,0v-.05l0,0a.43.43,0,0,1-.1-.27.09.09,0,0,0,0-.05,0,0,0,0,0,0,0s0-.06,0-.09a.3.3,0,0,1,0-.13c0-.05,0-.1-.07-.1s0,0,0,0v-.06a.14.14,0,0,0,0-.06.09.09,0,0,0,0-.05s0-.08,0-.11a.2.2,0,0,0,0-.11s-.07,0-.07,0a.17.17,0,0,1,0-.07s0,0,0,0a.08.08,0,0,0,0-.05.08.08,0,0,1,0-.05,0,0,0,0,1,0,0,.32.32,0,0,0,0-.09.61.61,0,0,0,0-.13s0-.08-.07-.08v.07s0,0,0,0,0,0,0,0,0,0,0,0a.19.19,0,0,0,0,.08.19.19,0,0,1,0,.08.12.12,0,0,1,0-.13.08.08,0,0,0,0-.08s0,0,0,0,.05,0,.06,0v0a.13.13,0,0,1,.07-.09.06.06,0,0,0,0,0,.07.07,0,0,0-.09-.1l-.07,0,0,0s-.06,0-.08,0a.11.11,0,0,1,0,.11.37.37,0,0,0,0-.21h0s0,0,0,0h0a.68.68,0,0,0,0-.14v0s0,0-.06,0a.43.43,0,0,0,0-.11s0,0,0,0,0,0,0,0a.46.46,0,0,0-.07-.07l0,0a.07.07,0,0,1-.06-.05.56.56,0,0,0-.05-.08.06.06,0,0,0-.08,0,.11.11,0,0,0,0,.11.24.24,0,0,0,.07.12l.11.11s0,0,0,0a.11.11,0,0,1,0,.08.24.24,0,0,0,0,.08.08.08,0,0,0,.07.1.22.22,0,0,1,0,.08.05.05,0,0,1,0,0,.06.06,0,0,1,0,.06s-.08,0-.07.06,0,0,0,.06,0,0-.06,0a.19.19,0,0,0,0,.08,2.55,2.55,0,0,0,.13.29.18.18,0,0,1,0,.14s0,0,0,0a.11.11,0,0,0,0,.08s0,0,0,.06a.22.22,0,0,1,0,.14s0,0,0,0h0a.23.23,0,0,1-.2,0,.31.31,0,0,1-.07-.21.78.78,0,0,0,0-.22,2,2,0,0,0-.1-.21s0,0-.05,0,0,0,0,0l0,0a0,0,0,0,0,0,0s0,0,0,0,0,0,0,0,0-.05,0-.07-.07,0-.11,0,0,0,0,0l0,0a.18.18,0,0,1-.07-.1s0,0,0,0h0a.11.11,0,0,1,0,.08l0,0a.11.11,0,0,0,0,.06s0-.06,0-.08a.12.12,0,0,0,0-.08H115a.09.09,0,0,1,0,.05s0,0,0,0a.21.21,0,0,0,0-.12h0v0s0-.06,0-.09a.07.07,0,0,1,0-.05.17.17,0,0,0,0-.1l0,0a0,0,0,0,1,0-.05h0a.06.06,0,0,1,0-.06H115a0,0,0,0,0,0,0,.08.08,0,0,0,0-.05l0,0s-.06.07-.1.07h0v0s0,0,0,0l0,0a.12.12,0,0,0,0-.13c0-.07.11-.09.12-.16s0-.11-.06-.17l.18-.06,0,0s0,0,0,0-.06,0-.09,0a.08.08,0,0,1,0-.08s0,0,0,0a.07.07,0,0,0,0-.1h0a.15.15,0,0,1-.09-.1s0-.1-.07-.15a.76.76,0,0,0-.08-.11.33.33,0,0,1,0-.14.41.41,0,0,1-.18-.37.25.25,0,0,1,0-.13l0,0,0,0s0,0,0,.05,0,0,0,0l0,0h0s0,0,0,0a0,0,0,0,1,0,0l0-.07a.19.19,0,0,1,0-.07.22.22,0,0,1,0-.08.07.07,0,0,0,0-.06h0v0a.33.33,0,0,1,0-.14l-.07,0,.06,0h0v0s0-.05,0-.08a.17.17,0,0,0,0-.07s-.08,0-.11,0a.1.1,0,0,1,0-.09.09.09,0,0,0,0-.05s0,0,0,0,0,0,0,0,0-.08,0-.08,0,0,0,0a.35.35,0,0,1-.07-.12h0s0,0,0,0a.08.08,0,0,0,0-.08,0,0,0,0,0-.06,0s0,0,0,0l0,0,.09,0s0,0,0,0h0a.09.09,0,0,1-.08-.11s0,0,.05,0h-.06s0,0,0,0a.15.15,0,0,0,0-.07s0,0,0,0a0,0,0,0,0,0,0,0,0,0,0,0,0,0l0,.05,0,.08a0,0,0,0,1,0,0l0,0s0,0,0,.06a.06.06,0,0,0-.09,0s0,0-.06,0,0,.07,0,.1a.15.15,0,0,1-.06-.11s0,0,0,0,0,0,0,0-.07-.08-.11-.08a.05.05,0,0,0,0-.05s0-.06,0-.06a.05.05,0,0,1,.08,0,.24.24,0,0,0,0,.08s0,0,0,0a.06.06,0,0,0,0-.06.1.1,0,0,0,0-.09.17.17,0,0,0-.17-.1h-.06a.07.07,0,0,1,0-.06.25.25,0,0,1,0-.08.21.21,0,0,0,0-.11l0,0s0,0,0,0l0,0-.08,0a.06.06,0,0,0-.07,0s0,0,0,0v0l-.06-.14s0,.05-.06.05a0,0,0,0,1,0-.05h0s0-.07-.05-.07,0,0,0,.07,0,.07,0,.11a.27.27,0,0,1-.23-.18s0,0,0,0,.07-.07.1-.1a.09.09,0,0,0,0-.07h0l0,0v0a0,0,0,1,0-.06,0s0,.08,0,.12,0,0-.06,0,0,0-.06,0,0,.07,0,.1,0,.08,0,.11,0,0-.06,0a.08.08,0,0,0,0,.08h0a.06.06,0,0,1-.09,0,.09.09,0,0,1,0-.11s.06-.05,0-.09,0,0-.06,0a.14.14,0,0,1-.1-.13s-.09,0-.08-.08a.11.11,0,0,0,.09.06.48.48,0,0,0-.14-.24l0,0a.39.39,0,0,1-.08-.28v-.08s0,0,0,0v.19a.13.13,0,0,1,0-.07l0,0a0,0,0,0,0,0-.06s0,0,0,0v-.14h0c0,.05,0,.09.08.07a.32.32,0,0,0,0-.14s.06,0,.07,0,0-.08,0-.08,0,0-.06,0h0l-.15,0a.08.08,0,0,1,0,.09l-.1,0-.14-.05s0,.11,0,.11a.53.53,0,0,0,.09.11l.1.08.08.1a5.58,5.58,0,0,1,.52,1.07,1.16,1.16,0,0,1,0,.18.29.29,0,0,1,0,.16s-.06,0-.09,0l0,0s0,0,0,.07a.07.07,0,0,0,0,.06s0,0,.06.05,0,.06,0,.08,0,0,.06,0a.51.51,0,0,0,.11.31,5.09,5.09,0,0,1,.3.62c.09.15.2.28.29.43a3.76,3.76,0,0,0,.41.77.42.42,0,0,1,.09.16l.06.15a.14.14,0,0,1,0,.09s0,.06,0,.08,0,0,0,.07v.05H114s0,0,0,0h0a.07.07,0,0,0,0,0v-.1a0,0,0,0,0,0,0h0s0,0,0-.06a0,0,0,0,0,0-.06s0,0-.06,0a0,0,0,0,0,0,0,.43.43,0,0,0-.05-.12c0-.05,0-.11-.08-.13a0,0,0,0,1,.06,0s0,0,0,0,0,0,0,0h.05l0,0a.64.64,0,0,1,.1.13.07.07,0,0,1,0,.06.1.1,0,0,0,.09,0,0,0,0,0,1,0,0,0,0,0,0,1,0,0s0,0,0,0a.08.08,0,0,0,0,.08l.08,0-.07,0a.22.22,0,0,1,0,.08l0,.06a.15.15,0,0,0,0,.07.17.17,0,0,1,.16.05h0s0,0,0,0,0-.05,0,0a.25.25,0,0,1,0,.12s0,0,0,.08a.32.32,0,0,0,0,.09.07.07,0,0,1,0,.09s0,0,0,0,0,0,0,0,0,0,0,0a.06.06,0,0,1,0,.06s0,0,0,0h0a.06.06,0,0,1,0,0s0,0,0,0h0a.12.12,0,0,1-.06-.08s0-.08,0-.12a.25.25,0,0,1-.15-.2s0,0,0-.06a.13.13,0,0,0-.06-.05h0s0,0,0,0h0s0,0,0,0a.07.07,0,0,0,0,.05.78.78,0,0,0,0,.14l.09.17s0,.09.07.14.06.33.17.41a.08.08,0,0,1,0,.07.22.22,0,0,0,0,.08s0,0,0,.06a.6.6,0,0,1,.06.23s0,0,0,.06,0,0,0,.05,0,0,0,0a.11.11,0,0,0,.09-.07s0,0,0,0a0,0,0,0,1,0,0l0,0s0,0,0,0a.17.17,0,0,0,0-.1h0a.12.12,0,0,1,.16-.07s0,0,0,0a.05.05,0,0,0,0,0,.09.09,0,0,0,0,.07.11.11,0,0,1,.09,0,.09.09,0,0,1,0-.05l0,0v.09s0,0,0,0a0,0,0,0,1,0,.05s0,0,0,0l0,.05,0,0-.13.08,0,0h0v.06s0,0,0,0l0-.1s0,0,0,0,0,0,0,0a0,0,0,0,0,0,0,.19.19,0,0,0,0-.07.06.06,0,0,0-.06,0l-.08,0s0,0,0,0,0,.06,0,.07,0,.1,0,.15a.43.43,0,0,0,0,.07l0,.11.09.3a.16.16,0,0,1,0,.1.14.14,0,0,1,0,.09.59.59,0,0,0,0,.19.35.35,0,0,1,0,.2v0s0,0,0,0l0,.08c0,.1,0,.21,0,.31s0,.06,0,.08,0,0,0,0v0s-.08.05-.12,0h0s0,0,0,0a.5.5,0,0,0,0,.12,1.46,1.46,0,0,0,0,.2c0,.05,0,.11,0,.13s0,0,0,0a.06.06,0,0,0,0,0,.11.11,0,0,1,0-.08,0,0,0,0,1,.06,0s0,.1-.07.12l0,0s0,.05,0,.07a.13.13,0,0,0,0,.06s0,0,0,0v0s0,0,.06,0,0,0,0,0h0a0,0,0,0,0,0,.05s0,0,0,0A.07.07,0,0,1,115,24a.14.14,0,0,1,0,.06h0l-.06,0a.07.07,0,0,0,0-.05s0,0,0,0h0V24s0,0,0,0,0,0,0,0,0,0-.07,0a.28.28,0,0,0,0,.13.2.2,0,0,1,0,.13s0,0,0,0,0,0,0,0h0s0,0,0,0a.39.39,0,0,1,0,.15.08.08,0,0,1,0,0l0,0a.53.53,0,0,1-.06.1s0,.05,0,.08a.65.65,0,0,1,0,.24v.24a2.58,2.58,0,0,1,0,.29,1.91,1.91,0,0,1-.1.34s0,.1-.06.11-.08.06-.1.12-.05.1-.09.11a.1.1,0,0,1-.09,0,.38.38,0,0,0-.33.12.13.13,0,0,1-.07.06h0c-.07,0-.1.11-.16.15s0,0-.06,0l-.18.17h0a.06.06,0,0,0,0,.06.17.17,0,0,1,0,.07l0,.08s0,.05,0,.08a.49.49,0,0,1,0,.12.41.41,0,0,0,0,.11l0,0,0,.06a.83.83,0,0,0,.08.12l.09.1.06.06,0,0h.07a.11.11,0,0,1,.09.06.48.48,0,0,1,.26.07.18.18,0,0,1,.07.05l0,.06a.81.81,0,0,0,.21.29s.05,0,.07.06l0,0s.1,0,.15.05.1.1.16.11a.4.4,0,0,0,.11,0c.09,0,.16.09.22.17l.07.09c0,.07.11.14.15.21a1.28,1.28,0,0,1,.17.42,1.47,1.47,0,0,1,0,.47V30l0,.16a3.21,3.21,0,0,1-.11.52c0,.16-.17.28-.21.45a1.42,1.42,0,0,1-.11.35l0,0s0,0-.07,0a1.1,1.1,0,0,1,0,.25s0,0-.05,0l0,.05a1,1,0,0,1-.17.24s0,0,0,.06a.25.25,0,0,1,0,.08s0,.09,0,.12,0,0,.05,0,0,.1.07.1.12,0,.17-.07a.25.25,0,0,0,0-.12,0,0,0,0,1-.05,0,.09.09,0,0,1,0-.07l0-.06s0,0,.06-.05.08.05.08.12a.26.26,0,0,1-.07.15.15.15,0,0,0,0,.07s0,0,0,.07,0,.08,0,.1,0,0,0,0a.5.5,0,0,0,.19-.1l0,0h0l.13.07s.06,0,.07.07,0,.18,0,.27,0,.09,0,.13,0,0,0,.06.09,0,.13,0,.06-.1.11-.1a.14.14,0,0,0,.1,0,.34.34,0,0,1,.08-.09.6.6,0,0,0,.11-.06l0-.07a.4.4,0,0,1,.13-.13.08.08,0,0,0,0,0v0s.06,0,.09,0a.32.32,0,0,0,.09-.15.32.32,0,0,1,.1-.14l0,0s0-.07,0-.11a.4.4,0,0,1,.08-.16l0,0,0-.05a.78.78,0,0,1,0-.14.19.19,0,0,0,0-.08s0-.05,0-.05.07-.08.1-.14l.06-.08a.82.82,0,0,0,.12-.32.29.29,0,0,1,0-.09l.05-.06a.17.17,0,0,0,0-.05.7.7,0,0,0,.08-.2.17.17,0,0,1,0-.12l0,0,0,0a1.62,1.62,0,0,1,.1-.18s0-.05.07-.06h0a.12.12,0,0,0,0-.05V30a1.55,1.55,0,0,1,.06-.31.14.14,0,0,0,0-.09h0a.67.67,0,0,1,.07-.11l.07-.08,0,0s0,0,0,0a.34.34,0,0,0,.13-.3h0a1.52,1.52,0,0,1,.12-.56s0,0,0,0l0,0a.15.15,0,0,0,0-.1.79.79,0,0,1,.13-.45s-.1,0-.14,0a.2.2,0,0,1-.09-.15,1.74,1.74,0,0,1,0-.22h-.06s0,0,0,0v0a1.7,1.7,0,0,1,0-.22.29.29,0,0,1,.07-.12.81.81,0,0,0,.17-.23.44.44,0,0,1,0-.15l0-.06a1.3,1.3,0,0,1,.54-.24,2.32,2.32,0,0,1,.59,0h0a.08.08,0,0,1,0,.07l0,.06a.32.32,0,0,0,0,.14.14.14,0,0,1,0,.06s0,.07,0,.1,0,.06.06,0a.78.78,0,0,1,.14-.32l0,0a.05.05,0,0,0-.05-.05s0,0-.06,0,0,0,0,0a1,1,0,0,1,0-.35,1.47,1.47,0,0,1,0-.21.31.31,0,0,1,.06-.19.06.06,0,0,0,0-.06v0a.24.24,0,0,1,0-.09l0-.06s0,0,.05,0,0,.05,0,.07,0,0,0,0,0,0,0-.06l0,0,.14-.15,0-.05a0,0,0,0,1,0,0l0,0,.06-.05a1.06,1.06,0,0,0,0-.19.2.2,0,0,1,0-.07,0,0,0,0,1,0,0,.19.19,0,0,0,0-.08s0-.05-.06,0l0,0a.3.3,0,0,0,0-.1.06.06,0,0,1,0,0s0,0,0,0,0-.06,0-.09a.4.4,0,0,1,0-.11s0,0,0,0h0a.06.06,0,0,0,0-.06s0,0,0,0h0l-.06-.07s0-.05,0-.06.05,0,.06,0,0-.06,0-.09l0-.09c0-.09.08-.15.1-.25a.49.49,0,0,1,0-.12.43.43,0,0,0,0-.07.31.31,0,0,0,0-.1c0-.1.09-.17.13-.27a.06.06,0,0,0,0,0Zm-6.77-5.7a.14.14,0,0,1,0-.11A.14.14,0,0,1,113.92,17.24Zm.06-.08,0,0v0h0a.38.38,0,0,1,.1,0S114,17.16,114,17.16Zm.91,3.65a.42.42,0,0,1,0,.1.08.08,0,0,1-.09,0,.07.07,0,0,0,0-.09s0,0,0,0h0s0,0,0,0l0,0a0,0,0,0,0,.05,0l0,0Z" fill="#fcb61d"/><path d="M114.34,31.71h0a0,0,0,0,0,0,0h-.12a0,0,0,0,0,0,.05h0a0,0,0,0,0,0,0h0s0,0,0,0h0a.07.07,0,0,1,0,.06h-.06v0c0,.05-.1.06-.13.11h0s0,0,0,0h0l.06,0a0,0,0,0,1,0,0h0l0,0h0s0,0,0,0,0,0,0,.06,0,0,0,0l0,0h0s0,0,0,0,0-.06-.06,0l0,0a.21.21,0,0,1-.1.06,0,0,0,0,0,0,0s0,0,0,0h-.1l0,0,0,0s0,0,0,0h0v0h0s0,0,.05-.05l.08,0a0,0,0,0,0,0,0h0s0,0,0,0l0,0s0,0,0-.06a0,0,0,0,1,0,0h0a.05.05,0,0,0,0,0,.33.33,0,0,1-.07-.13s0,0,0,0,0,0,0-.06,0,0,0,0,0,0,0,0,0,0,0,.06l0,0h0c0-.05,0-.12,0-.16l0,0s0,0,0,0h0s0,0,0,0l0,.05h0s0,0,0-.06a.11.11,0,0,1,0-.07,0,0,0,0,0,0,0h0v-.06s0,0,0,0,0,.05,0,.07,0,0-.06,0v.11a.45.45,0,0,0,0-.08s0-.06,0-.06,0,0,0,0l0,0a.05.05,0,0,0,0-.05,0,0,0,0,0,0,0h0v0s0,0,0,0h-.07s0,.05,0,0l0,0,0-.07s0,0,0,0a.07.07,0,0,1,0,.05.07.07,0,0,0,0,.05,0,0,0,0,0,0,0,.14.14,0,0,0,0,.06.09.09,0,0,1,0,.07.2.2,0,0,0-.07-.06.11.11,0,0,0,0,.06s0,.06,0,.08,0-.06,0-.1a.13.13,0,0,0,0-.09.73.73,0,0,1-.09.08.25.25,0,0,0,0,.09h0s0,0,0,0,0,.05,0,.08,0,0,0,0a0,0,0,0,0,0,0l0,0s0,0,0,0,0,0,0,0h0a0,0,0,0,0,0,0h0a.08.08,0,0,1,0-.07s0,0,0,0l.05,0,0,0a.12.12,0,0,1-.06.06l-.07,0s0,0-.05,0h-.07l-.06,0v0s0,0,0,0l0,0-.08,0s0,0,0,0,0,0,0,.06a.08.08,0,0,1-.07,0,.07.07,0,0,1,0-.08h0v0h0s0,0,0,0,0,0,0-.06,0,0,0,0a.07.07,0,0,0,0,0l0,0s0,0,0,0v0l.06-.07s0,0,0,0,0,0,0,0,0,0,0,0h0v0h.06v0h0s0,0-.07,0l0,0,0,0s0,0,0,0l0,0,0,0,0,0s0,0,0-.06a0,0,0,0,0,0,0s0,0,0,0a.05.05,0,0,1,0,0h0a.05.05,0,0,0,0,0h0a0,0,0,0,1,0,0h.1l0,0a0,0,0,0,0,0,0h0s0,0,0,0,0,0,0,0h0s0,0,0,0h0s0-.09,0-.13h0v.05h0a0,0,0,0,0,0,0,0,0,0,0,0,0,0,0,0,0,0,0,0,0h0v0l0,0h0v0h0s0,0,0,0l0,.06,0,.06-.09.1,0-.07s0,0,0,0,0,0,0,0v0h0l-.14.08c0,.05,0,.1,0,.11s-.06,0-.07,0,0,.05.05,0,0,0,.07,0a.16.16,0,0,1-.12.13v.06s0,0-.06-.05,0,0,0-.05,0,0-.06,0-.1.23-.19.27a.29.29,0,0,0,0-.09.37.37,0,0,0-.19.23.34.34,0,0,1,0,.12s-.08,0-.1.07,0,0,0,.06,0,0,0,0a.36.36,0,0,1,0-.11.1.1,0,0,1-.07,0l0,0a.31.31,0,0,0-.08-.3l0,0s0-.06,0-.09,0-.1,0-.11a.14.14,0,0,0,0-.11s0-.08-.06-.07a.22.22,0,0,0,.09-.13.47.47,0,0,0,0-.17.28.28,0,0,0,0-.09s-.05,0-.06,0V31s0-.1,0-.09a.06.06,0,0,1-.1,0A.07.07,0,0,1,112,31a.36.36,0,0,1-.25-.37s0,0,0-.05,0,0,0-.05a.4.4,0,0,1,.12-.3c.06,0,.14,0,.21,0s-.15,0-.23,0l-.08,0-.06,0a.34.34,0,0,0-.15.2h0a0,0,0,0,0,0,0,.78.78,0,0,0-.24.27s-.05.08-.08.06a.38.38,0,0,0,0,.1s0,0-.06,0,0,0,0,0,0,0,0,0a.15.15,0,0,0-.12.09.59.59,0,0,0-.07.16.65.65,0,0,0-.05.2.88.88,0,0,0,0,.16v.1c0,.18,0,.34,0,.52a.2.2,0,0,1,0,.17s0,.1,0,.16a.15.15,0,0,1,0,.07c0,.06-.06.08-.1.12a.35.35,0,0,0-.06.14l-.09.21a.19.19,0,0,1,0,.09l0,0a.56.56,0,0,0-.05.08c-.06.09-.14.18-.23.18s-.08,0-.11,0l0,0a.1.1,0,0,1-.09,0,.07.07,0,0,0-.09,0s0,0,0,.08a.74.74,0,0,1,0,.21.13.13,0,0,1,0,.06l0,0s0,.1,0,.15v.13a0,0,0,0,1,0,0l0,0v0a2.11,2.11,0,0,0-.09.49s0,.09,0,.14l0,.12a4.7,4.7,0,0,1-.17.45,2,2,0,0,1-.08.22l-.06.13c-.07.11-.15.2-.21.31l-.17.33a.41.41,0,0,1-.08.13.81.81,0,0,1-.1.09.16.16,0,0,0-.06.13c-.11,0-.2.12-.31.11h0s0,0-.06.07a.44.44,0,0,1-.13.14l-.06,0,0,0v.06a.33.33,0,0,1,0,.13l0,0s0,0,0,0a.52.52,0,0,0-.11.1l0,.06-.2.25a.1.1,0,0,1,0,0s-.07,0-.1,0l0,0a2,2,0,0,0-.18.32.13.13,0,0,1,0,.07h0s0,0,0,.06a0,0,0,0,1-.05,0s0,0-.07,0,0,0,0,0a.11.11,0,0,1-.09,0,.18.18,0,0,0-.1,0c-.06,0-.1.09-.15.13l-.09.06a.58.58,0,0,0-.1.12,4,4,0,0,0-.28.3.39.39,0,0,1-.08.1l-.08,0a.32.32,0,0,0-.1.1c-.07.08-.24.19-.32.1l0,0s0,0-.06,0l0,.07a.13.13,0,0,1-.12,0,.32.32,0,0,0-.13,0,.09.09,0,0,1,0,.07l0,0s0,0,0,.07l0,0c0,.06,0,.17-.08.21a.09.09,0,0,0-.06,0s0,.05,0,.07-.05,0-.07,0,0,.05,0,.07-.09.1-.13,0,0,.06,0,.08a.13.13,0,0,1,0,.1c0,.1-.09.08-.15.08h0a.19.19,0,0,0,0,.08v0l0,0h0a0,0,0,0,1,0,0h0s-.06,0-.08.06a.31.31,0,0,0,0,.1s0,.06,0,.09,0,0-.06,0a.29.29,0,0,0,0,.1s0,.09,0,.14.06.06.09.09a.18.18,0,0,1,0,.16.86.86,0,0,0-.1-.16s0,0,0,0h0s0,0,0,0l0,0h0a.07.07,0,0,0,0,.06h0s0,0,0,0,0,0,0,0a.09.09,0,0,0,0,0s0,0,0,0v0a.1.1,0,0,0-.07,0h0a.22.22,0,0,0,0,.08.12.12,0,0,0,0,.1l0,.06a.21.21,0,0,0-.13,0,0,0,0,0,0,0,0,0,0,0,0,0,0,.05l0,0a.24.24,0,0,1,0,.09s0,0,0,0v.05s0,0,0,0,0,0,0,0a.16.16,0,0,1,0-.09l0,0-.08-.06s0,0-.06,0l0,0v.08a0,0,0,0,1,0,0s0,0,0,0h0s-.07,0-.07.07a.14.14,0,0,0,0,.07.34.34,0,0,1,.05.14.14.14,0,0,1,0,.06.15.15,0,0,1,0-.1v0s0-.07-.07-.08h0a0,0,0,0,0,0,0l-.08.09a.26.26,0,0,0-.07.11.19.19,0,0,1,0,.08h0l0,0a.08.08,0,0,0,0,0,0,0,0,0,0,0,0h0s0,0,0,0-.07,0-.09,0,0,0-.06,0l0,.05v.06s0,0,0,0a.18.18,0,0,1,0,.07.14.14,0,0,1,0,.09l-.07-.14s0,0,0,0,0,0,0,0l0,0h0a0,0,0,0,0,0,0l0,0a.61.61,0,0,0,.05.12.14.14,0,0,0,0,.06.23.23,0,0,0,0,0,.19.19,0,0,1-.07-.06.25.25,0,0,0,0-.07s0,0,0,0,0,0,0,0h0a.23.23,0,0,0,0,.12.19.19,0,0,1,0,.1.09.09,0,0,1,0-.07.09.09,0,0,0,0-.07s0,0,0,0v0s0,0,0,0l0,.07,0,.07v0s0,.08,0,.12a0,0,0,0,0,0,0s0,0,0,0,0,.05,0,.06h0s0,0,0,0v0s0,0,0,0a.1.1,0,0,0,0,0s0,0,0,0h.12s0,0,0,0h-.1a.08.08,0,0,0-.07.07.19.19,0,0,0,.07.08l.05,0a.14.14,0,0,1,0,.06l-.06,0h0s0,0,0,0h0a.07.07,0,0,0-.06-.07s0,0,0,0v0h0l-.07-.05,0,0h0a.3.3,0,0,0-.08.16.17.17,0,0,0,0,.07.06.06,0,0,0,0,.06l0,0a.06.06,0,0,1,0,.07s0,0,0,0h0l0,0h0a.3.3,0,0,0,0,.1.71.71,0,0,0,0,.14.08.08,0,0,1,0,0s0,0,0,0h0s0,0,0,0a.32.32,0,0,0,0,.09.11.11,0,0,0,0,.1s.07,0,.11,0l.22-.12a.44.44,0,0,1-.22.14.05.05,0,0,0,0,0,.06.06,0,0,0,0,0c0,.05,0,.1,0,.16s0-.09,0-.12l0,0a.25.25,0,0,0-.12,0h0l0,0a.36.36,0,0,0,0,.09.08.08,0,0,0,0-.07h0s0,.08,0,.12l-.06.06a.1.1,0,0,0,0,.09h0a.27.27,0,0,0,.08-.1l0,0s0,0,0,0a.07.07,0,0,1,0,.06s0,0,0,.07v0h0s0,0,.06,0,0-.07,0-.09a.19.19,0,0,1,0,.07s0,0,0,0a.05.05,0,0,1,0,0,0,0,0,0,0,0,0,.06.06,0,0,0,0,0h0l-.17.11,0,0a.08.08,0,0,0,0,0s0,0,0,0a.3.3,0,0,0-.15,0c-.06,0-.07.09-.07.17s0,.09,0,.11a0,0,0,0,0,0,0s0,0,0,.05,0,.07,0,.11a.07.07,0,0,0,.06,0,.15.15,0,0,0,.07,0s0,0,.06,0a.15.15,0,0,0,0-.06,1.3,1.3,0,0,0,.08-.17c0-.05,0-.1.07-.11s0,.14,0,.22a.32.32,0,0,0,.17,0l-.18.07-.06,0a.07.07,0,0,0,0,.07s0,0,0,0,0,0-.05,0a.06.06,0,0,0,0,.06s0,0,0,0,0,0,.06,0h0l0,0,.07-.11a.09.09,0,0,0,0,.1,0,0,0,0,0,.07,0s0-.1,0-.13l0,0,.21-.12a.25.25,0,0,1-.12.11s-.05,0-.07.06a.08.08,0,0,0,0,.1.2.2,0,0,1-.09.11l0,0v0s0,.08-.07.07a.06.06,0,0,0,0-.08s0,.06,0,.09l.06,0s0,.14,0,.18a.26.26,0,0,0,.17,0h.24l.06,0,.15.06.18.05h.07s0,0,.07,0h0a.09.09,0,0,0,.1,0,.12.12,0,0,0,0-.13l.09,0s0-.09.05-.1a.15.15,0,0,1,.11,0l.2.17a.39.39,0,0,1,.14.17v0s0,0,0,0a.07.07,0,0,0,0,.06l0,0a.09.09,0,0,1,0,.08.11.11,0,0,0,.12.07s0,0,0,0,0,0,0,.05,0,0,0-.05,0,0,0-.06,0,0,0,0,0,0,.05.05a.07.07,0,0,0,.08,0,.07.07,0,0,0,0-.06s0,0,0,0l-.06-.06a.07.07,0,0,0,.06,0h.14a.15.15,0,0,1,.09,0,.12.12,0,0,1,0,0,.25.25,0,0,1,0,.12.49.49,0,0,0,0,.12s0,0,0,.06,0,0,0,.06.06,0,.09,0a.06.06,0,0,1,0-.07.1.1,0,0,1,0-.06l0,0a.19.19,0,0,1,0,.19l0,0,0,0a0,0,0,0,0,0,0s0,0,0,0h0a.09.09,0,0,0,0,.07l0,.06,0,.08a.18.18,0,0,0,.05.07s0,0,0,0v0a.06.06,0,0,0,0,0,.09.09,0,0,1,0-.07s0-.06,0-.06,0,0,0,.07,0,.06,0,.08a.1.1,0,0,0,.07,0h0s0,0,0,0a.29.29,0,0,0,.16,0,.07.07,0,0,0,0-.06,0,0,0,0,1,0,0s0,0,0,0h0a0,0,0,0,0,0,.06l.06,0a.25.25,0,0,1,.15,0,.13.13,0,0,1,.11.12v.07a.11.11,0,0,0,.07.06H106a.1.1,0,0,0,0,0,0,0,0,0,0,.06,0s0-.05,0-.07l0,.06a.14.14,0,0,0,.16-.12s0,.06,0,.07a.07.07,0,0,0,.06,0l0,0s0,0,0-.06.11,0,.15,0,0-.06,0-.06h0l0,0s0,0,0,0,0,0,0,0a.15.15,0,0,0,.06-.05s0,0,0-.07,0,.05.08.07H107c.06,0,.09-.11.15-.15l0,0s0-.07,0-.11a.07.07,0,0,0,.08,0,.15.15,0,0,0,.06-.09.14.14,0,0,0,0-.09.45.45,0,0,1,0-.11.15.15,0,0,1,0-.09l.08-.05.12-.1c.06-.06.1-.12.15-.18s0,0,0,0,0,0,.08,0l.1-.11a.05.05,0,0,0,0,0s0,0,0,0,.05-.12.05-.19a.19.19,0,0,1,0-.08s0,0,0,0a.25.25,0,0,0,0-.07.33.33,0,0,1,.12-.14.52.52,0,0,1,.16-.06,1.84,1.84,0,0,1,.38-.08s0,0,0-.07l.07,0a.08.08,0,0,1,0,0,0,0,0,0,0,0,0h0s0,0,0,0v0s0,0,0,0,0,0,0,0,0,0,0-.07v0h0a.85.85,0,0,1-.22.13.21.21,0,0,1,.15-.13s0,0,0,0v0s0,0-.07,0l-.07-.08s0,0,0,0,0,0-.05,0,0,0,0,0l0,0s0,0,0-.06h0a.13.13,0,0,0,0-.13s0,0,0-.07l0,0h0s0,0,.07,0a.05.05,0,0,0,0,0s0,0,0-.05a.76.76,0,0,1,.06-.16l0-.08s0,0,0,0a.28.28,0,0,0,0-.09.14.14,0,0,1,0-.09l0,0h0s0,0,0-.07h0l0,0h0a0,0,0,0,1,0,0v-.06a.2.2,0,0,1,0-.11s0,0,0,0a0,0,0,0,0,0,0l0,0s0,0,0,0v0a1.54,1.54,0,0,1,0-.17s0-.05,0-.08,0,0,0-.06,0,0,0-.08a.19.19,0,0,1,.09-.11.85.85,0,0,0,.21-.54c0-.21,0-.42,0-.63a.83.83,0,0,1,0-.27c0-.08.08-.14.11-.23a.62.62,0,0,0,0-.19s0-.13,0-.14.08-.1.12-.16a1,1,0,0,1,.17-.18s.07-.06.07-.11,0,0,0,0l.12-.11.22-.17a.18.18,0,0,0,.05-.07.06.06,0,0,0,0-.06h0a5.74,5.74,0,0,1,1-.48s0,0-.08,0,0-.09,0-.14a.15.15,0,0,1,.08-.11s.07,0,.1,0,.08.08.13.09.09,0,.13,0a.24.24,0,0,1,0,.12l-.19,0s-.08,0-.09.06.26,0,.4,0l0,.06s.07.07.11.06a0,0,0,0,0,0,.05H112l.07,0s.06,0,0,0l0,0h.08a.11.11,0,0,0,.11,0c.06-.06,0-.17.08-.25a.15.15,0,0,0,0-.07s0-.06,0-.05a.17.17,0,0,0,0-.1h-.08s0-.07,0-.09a.08.08,0,0,0-.08,0s0-.06,0-.07a0,0,0,0,0-.07,0,.15.15,0,0,0,0-.07l-.06.14s0-.07,0-.1,0-.07,0-.07-.07.06-.08.12v-.13s-.12.07-.17,0v.09l0,0v0a.09.09,0,0,1,0-.12.53.53,0,0,1,.12,0s0,0,0,0,0,0,0,0a.14.14,0,0,0-.09-.08.56.56,0,0,0,0-.29.64.64,0,0,1,0-.2,1.36,1.36,0,0,1,.13-.57.05.05,0,0,1,0,0s0,0,.06,0,0-.08.08-.1l.07,0s.06,0,.08-.07.06-.06.09,0h0s.05,0,.06-.07.12-.13.19-.19a.31.31,0,0,0,.1-.26.37.37,0,0,0,.11-.18c0-.08,0-.16.07-.23a2.4,2.4,0,0,0,.12-.38.17.17,0,0,1,0-.07.33.33,0,0,1,.11-.22l0,0,0,0a.12.12,0,0,1,.09,0s0,0,0,0,0,0,0,0a0,0,0,0,0,0,0s0,0,0-.05v0s0-.06,0-.08,0,0,0-.06a.17.17,0,0,0,.06-.1s0,0,0,0v0s0,0,0,0a.24.24,0,0,0,.1-.1c0-.06.06-.14.11-.17a.25.25,0,0,1,0-.15.64.64,0,0,0,0-.07l0-.08.16-.24a.35.35,0,0,1,0-.08l.06-.07a2.65,2.65,0,0,0,.18-.42.12.12,0,0,0,0-.08h-.12l0,0a.44.44,0,0,1,0-.2.32.32,0,0,0,0-.17s0,0,0,0a.56.56,0,0,0,0-.08h0a.1.1,0,0,0,0,0s0,0,0,0a.08.08,0,0,1,0-.08v-.07a.22.22,0,0,1,0-.08.13.13,0,0,1,0-.08l0-.06a.09.09,0,0,1,0,0l0-.06v0a0,0,0,0,0,0,0s0,0,0,0h0v.08h0a0,0,0,0,1,0,0,0,0,0,0,1,0,0s0,0,0,.07l0,0a.06.06,0,0,0,0,.06.17.17,0,0,0,.14-.11v0s0,0,0,0h0a0,0,0,0,0,0,0h0v0h0l0,0a0,0,0,0,0,0-.06h0s0,0,0,0h0s0,0,0,0l0,0h.07s0,0,0,0a.68.68,0,0,1,0-.14l0,0a.07.07,0,0,0,0-.06ZM112.07,39s0,0,0,0a.34.34,0,0,0,0-.1s0-.07,0-.06a1.51,1.51,0,0,1,0,.3A.1.1,0,0,1,112.07,39Z" fill="#fcb61d"/><path d="M104.83,47.8a.45.45,0,0,0,0,.11,0,0,0,0,1,0,0,0,0,0,0,1,0,0,.11.11,0,0,1-.11,0s0,0,0-.07a.1.1,0,0,0,0-.06l0-.06s0,0,0,0,0,0,0,0l-.12.15a.15.15,0,0,1,0-.09.3.3,0,0,0,.08-.16s0,0,0,0,0,0,.06,0,0,0,0,.05h0l.08,0s.05,0,0,0,0,0,0,0l0,0s0,0,0,0v0a.23.23,0,0,1-.14-.26,0,0,0,0,0,0,0s0,0,0,0a.42.42,0,0,0-.14-.09s-.06,0-.08,0a.08.08,0,0,0-.12,0,.3.3,0,0,0-.07.15.5.5,0,0,0,0,.12.19.19,0,0,0,0,.07.71.71,0,0,1,.06.24.21.21,0,0,1-.1.2h0s0,0,0,0,0,0,0,.07,0,.05,0,0,0,0,0,0h0c-.07,0-.15,0-.16.13v0s0,0,0,.05v0a.28.28,0,0,1,0,.16s-.1,0-.12.1a.07.07,0,0,0,0,0,.34.34,0,0,0,0,.1s0,0,0,0,0,0,0,0a.17.17,0,0,0,.12,0,.43.43,0,0,0,.1-.09v0s0,0,0-.06h0v0h-.06l0,0a0,0,0,0,0,0,0l.07,0s0-.05,0-.07h0a0,0,0,0,1,0,.05,0,0,0,0,1,.07,0,.15.15,0,0,0,.07,0l.06,0a.28.28,0,0,0,.13-.11s0,0,0,0a.07.07,0,0,1,.11,0,.11.11,0,0,1,.1-.06.11.11,0,0,1,0-.06s0,.07.08.06,0-.08,0-.09h0s0-.07,0-.07h0l0,0a.14.14,0,0,0,0-.09s0-.06,0-.09S104.84,47.84,104.83,47.8Z" fill="#fcb61d"/><path d="M95.28,33.26V17.9s-.1,0-.15,0a.25.25,0,0,1-.17,0,.23.23,0,0,1-.08-.2.08.08,0,0,1-.09.07.13.13,0,0,1-.06-.12.73.73,0,0,1-.41-.3.41.41,0,0,1-.1-.13c-.07-.17,0-.4,0-.58s-.22-.25-.25-.43a.79.79,0,0,1,0-.3,1.56,1.56,0,0,0-.06-.91c-.07-.17,0-.42-.11-.56a.17.17,0,0,0-.12.06,3.25,3.25,0,0,0-.23-.29.54.54,0,0,1-.1-.16.8.8,0,0,1,0-.27c0-.1,0-.2,0-.3a.37.37,0,0,0,0-.11c0-.11-.08-.19-.1-.3a.62.62,0,0,1,0-.19.69.69,0,0,0,0-.24.19.19,0,0,1,0-.09s0-.06,0-.09,0-.06,0-.09a.35.35,0,0,1,0-.17c0-.09.08-.16.09-.24s0,0,0-.05l0,0c-.07,0-.14-.07-.2-.12a.31.31,0,0,1-.13-.22.13.13,0,0,0,0-.06l0,0a1.4,1.4,0,0,0-.17-.09.22.22,0,0,1-.15-.12.55.55,0,0,1,0-.18.47.47,0,0,0-.1-.2.45.45,0,0,0-.15.18.09.09,0,0,0-.13,0,.21.21,0,0,0-.06.16s0,0,0,0l0,0s0,0,0,0-.21,0-.25-.1a1.23,1.23,0,0,1,0-.19c0-.14-.14-.22-.17-.36a1.34,1.34,0,0,1,0-.2,3.11,3.11,0,0,0,0-.61.52.52,0,0,0,0-.18c0-.05-.06-.09-.06-.14s.07-.25,0-.33-.1,0-.12-.05a.55.55,0,0,1,0-.18.53.53,0,0,0-.15-.41.53.53,0,0,1-.1-.06.34.34,0,0,1,0-.3,1.23,1.23,0,0,0,.09-.29A.22.22,0,0,1,91,7.69a.38.38,0,0,1,0-.33c0-.05,0-.1,0-.14s0,0,0,0a.17.17,0,0,1,0-.17.47.47,0,0,0,0-.17.22.22,0,0,0-.15-.18c-.07,0-.15-.09-.16-.18s0-.2,0-.24-.1.06-.13.13-.09.14-.16.15-.07,0-.1,0-.07.13-.07.21a2.14,2.14,0,0,1,0,.62c0,.07,0,.14-.07.2a.27.27,0,0,0,0,.12.4.4,0,0,0,0,.15A.19.19,0,0,1,90,8s-.06-.08-.1-.07a.13.13,0,0,0-.09.1c0,.05,0,.09,0,.13a.64.64,0,0,1-.08.19.26.26,0,0,0,0,.19.16.16,0,0,0,.19.1c0,.08,0,.21.08.22A.2.2,0,0,1,90,9a.23.23,0,0,0-.23.07.41.41,0,0,0-.1.28c0,.13.07.25.09.38a.06.06,0,0,1,0,0s0,0-.06.06-.08.2-.11.32,0,.17-.07.26a.33.33,0,0,0,0,.26.71.71,0,0,0,.07.09c.07.11,0,.29,0,.41,0,.37.18.76.08,1.11,0,.14-.13.24-.17.38a2.07,2.07,0,0,0,0,.5,2.88,2.88,0,0,1-.28,1.17,2.16,2.16,0,0,0-.25.58,1,1,0,0,1-.09.42.3.3,0,0,1-.13.12.78.78,0,0,1-1-.14,1,1,0,0,0-.18-.18.5.5,0,0,1-.13-.05.61.61,0,0,1-.09-.16.79.79,0,0,0-.6-.54.69.69,0,0,1-.25,0c-.07,0-.12-.11-.18-.17l-.36-.48c-.06-.07-.13-.15-.21-.15a.53.53,0,0,1-.12,0,.15.15,0,0,1-.1-.06l-.36-.33c-.11.09-.29,0-.32-.17a.66.66,0,0,1-.35-.41.59.59,0,0,0-.06-.14l-.09,0a1.07,1.07,0,0,1-.64-.55.31.31,0,0,1,0-.23s.06,0,.08-.08a.11.11,0,0,0,0-.13c.07,0,.07-.18.12-.26s.1-.07.14-.11.1-.36.17-.53a1,1,0,0,0,.06-.18c0-.06,0-.14-.08-.13a.17.17,0,0,1-.08-.13c0-.05,0-.12.08-.09a.42.42,0,0,1,0-.31.34.34,0,0,1,0-.14.08.08,0,0,1,.1-.06s.06.06.09.07.08,0,.12,0a.4.4,0,0,0,.07-.13c0,.06,0,.11,0,.16s0,0,0,0,0,0,0,0a.22.22,0,0,0,.11,0,.15.15,0,0,0,0-.13s0-.07,0-.11,0-.11.05-.09a.21.21,0,0,1,0-.26s.09-.05.12-.08A.47.47,0,0,0,85,8.48a.42.42,0,0,0,.14-.09s0,0,0-.05a.1.1,0,0,0,0-.09L85,8.2l0,0a0,0,0,0,0-.06,0s0,.13,0,.12l0,0a1.22,1.22,0,0,1-.14-.33.19.19,0,0,0,0-.09.12.12,0,0,0-.08,0c-.06,0-.14.07-.14.16a.36.36,0,0,1,0,.35.19.19,0,0,1-.23.14h0c0-.05.08-.11,0-.17l0,0s0-.16-.05-.17,0,.06,0,.11-.1-.08-.15-.07-.07,0-.08.09A.45.45,0,0,1,84,8c.06-.11.16-.2.15-.33s-.09,0-.12,0a.64.64,0,0,1-.1.13s-.09.06-.09.12,0,.11,0,.14S83.74,8,83.68,8a.14.14,0,0,0-.14,0,.15.15,0,0,0-.07.1.11.11,0,0,0,0,.11.06.06,0,0,0,.09,0c-.06.15-.23.09-.32,0s-.14-.2-.22-.3,0,0-.06,0a.13.13,0,0,0-.07,0,.26.26,0,0,1-.32,0,.07.07,0,0,0,0,0c-.06,0-.1.07-.12.14V7.78a.22.22,0,0,0-.3,0,.72.72,0,0,0,.12-.21c-.07-.08-.16,0-.25.06a.21.21,0,0,1-.13,0,.57.57,0,0,1-.52-.32,1.44,1.44,0,0,1-.1-.37c0,.14-.16.15-.22.25A.11.11,0,0,0,81,7.13V7.05s-.08,0-.09,0a.22.22,0,0,0,.12-.2.27.27,0,0,0-.1-.22,0,0,0,0,0-.07,0s0,.06,0,.08a.75.75,0,0,1,0,.3.7.7,0,0,1-.15-.19l0,.07-.12-.14a.43.43,0,0,0,0,.37.73.73,0,0,1-.13-.34c0,.12-.19.07-.18.18a.15.15,0,0,0,0,.07l.15.18.06.06s.1,0,.15,0a.6.6,0,0,1,.32-.07.2.2,0,0,0,.08.26,3.64,3.64,0,0,0,0,.57c-.07,0-.14.08-.16.18a.14.14,0,0,1,0,.06s-.08,0-.11,0-.07-.08-.11-.08a.09.09,0,0,0,0,0,.75.75,0,0,1-.38.1.46.46,0,0,1-.26,0,.29.29,0,0,1-.15-.26.29.29,0,0,0-.17.24L79.39,8a1.74,1.74,0,0,0,0,.39c0-.05-.12-.1-.15,0s0,.1,0,.15,0,.13,0,.14A.33.33,0,0,0,79,8.39l0,.09a.2.2,0,0,0,0,.27.13.13,0,0,1,0,.08h0c-.06,0-.14,0-.18,0s0,.21-.06.29-.23,0-.27.12a.26.26,0,0,0,0,.15c0,.12.09.25.14.37a.21.21,0,0,1-.11,0c0,.07-.08.14-.15.15h-.07s-.08.09-.1.16a3.45,3.45,0,0,0-.1.56c-.15,0-.25.2-.33.37a.14.14,0,0,0,0,.06c0,.06.06.08.09.12s0,.09,0,.14.18.07.26,0-.07.08-.08.15a.09.09,0,0,0,0,.07l.08,0a.16.16,0,0,1,.15.06c-.06.11-.18.08-.28.08s0,0,0,0a.11.11,0,0,0,0,.06l0,.08c0,.11.06.2.13.28a.9.9,0,0,1,.18.41.12.12,0,0,1-.1,0v-.22a.64.64,0,0,0,0-.07.1.1,0,0,0-.05,0,.38.38,0,0,1-.16-.15.78.78,0,0,0-.1-.15c-.05,0-.14-.06-.15-.14l-.12.09a.62.62,0,0,1,.08.24c0,.05-.08,0-.09,0s0-.13,0-.16l0,0a.45.45,0,0,1-.11-.13.29.29,0,0,0-.18-.05l-.35,0a.44.44,0,0,1,0,.32.22.22,0,0,0-.16-.15,2.59,2.59,0,0,1,.07.55c0-.08-.09-.18-.16-.17a.42.42,0,0,1-.07.33.63.63,0,0,1-.24.19l.19-.14a.23.23,0,0,0,.08-.11c0-.08-.06-.16,0-.24s.13-.15.11-.25l0-.08c0-.12.06-.24,0-.37a.65.65,0,0,0-.13-.23l-.15-.2a4.23,4.23,0,0,0-.33-.41,1.57,1.57,0,0,0-.73-.45.53.53,0,0,0,.14.35.15.15,0,0,0-.17.06s0,.07,0,.1-.12,0-.15-.06a.59.59,0,0,1,0-.23l-.28.4a.73.73,0,0,0,0-.33c0-.1-.15-.15-.21-.07a.37.37,0,0,0,0,.18c0,.06.06.11.1.09l-.06.28a.1.1,0,0,0-.14,0,.4.4,0,0,1,0,.37.23.23,0,0,0-.22-.24.52.52,0,0,0-.29.14s0,.09,0,.13a.2.2,0,0,0-.15.12,1.47,1.47,0,0,0,.26.55,1,1,0,0,1-.42-.2c0,.09-.09.16-.15.14s0,.25.09.22-.08.07-.07.13a.39.39,0,0,1,.21,0,.26.26,0,0,1-.1.24.53.53,0,0,0-.37-.26l0,.23c-.1,0-.19.09-.2.23a.72.72,0,0,0,.1.38.42.42,0,0,1,.19-.27l-.14.46H73a.35.35,0,0,0,.21.42l-.22,0c0,.08,0,.16,0,.24a3,3,0,0,0-.46-.48v.26s-.11,0-.13-.07a.65.65,0,0,1,0-.2l-.25,0,.09.26-.1-.05a.23.23,0,0,0,.07.18h-.12l.06.15.31.82-.26-.17a.94.94,0,0,1-.06.57,8.13,8.13,0,0,1-.49-1.49l-.18.23a.35.35,0,0,0-.07.15s0,.07,0,.11-.15.19-.26.2,0,.12,0,.15-.09,0-.14.06-.14.22-.17.36a1.76,1.76,0,0,0-.07.56A.54.54,0,0,0,71,16a.79.79,0,0,1-.56.64l0,.27-.13,0a1.33,1.33,0,0,1-.05.19A9.77,9.77,0,0,1,72,19a.93.93,0,0,1-.18,1.27L68.28,23A.93.93,0,0,1,67,22.81a3.67,3.67,0,0,0-3-1.64,3.25,3.25,0,0,0-.44,0,1,1,0,0,0-.32.85L63,22c.11-.12-.06-.35,0-.52s.06-.12.05-.18h0a1.31,1.31,0,0,0-.21.08,1.78,1.78,0,0,0-.25,1.1c0,.08,0,.16,0,.24s0,.27,0,.4a.53.53,0,0,1,0,.33.43.43,0,0,1-.09.13,1,1,0,0,0-.22.65,2.29,2.29,0,0,1,0,.37.68.68,0,0,0,0,.14c0,.2.17.32.21.5s0,.31,0,.45a.63.63,0,0,0,.1.2,2.52,2.52,0,0,1,.14.33l.23.59a2.32,2.32,0,0,1,.13.45.57.57,0,0,1,0,.26.24.24,0,0,1-.13.17.15.15,0,0,1-.17-.1,1,1,0,0,1,0-.3c0-.1,0-.22-.07-.26a.45.45,0,0,1-.08.36s-.06,0-.09,0h0a.23.23,0,0,0,.06.15s.07,0,.08.08a.15.15,0,0,1,0,.11l-.09.22a.1.1,0,0,0-.07-.09.13.13,0,0,0-.1,0,.15.15,0,0,0,0-.16.33.33,0,0,0,0-.26l0,0a.2.2,0,0,1,0-.13.39.39,0,0,0,0-.15s-.06-.07-.09,0l0,0-.09.2c0-.18-.09-.34-.11-.52s0-.34-.08-.44a.62.62,0,0,0,0,.5c.05.16.19.29.18.46a.61.61,0,0,0,.11.35,2.86,2.86,0,0,0,1.82.62,3.73,3.73,0,0,0,3.11-1.72.93.93,0,0,1,1.25-.16L71.91,29a.94.94,0,0,1,.21,1.3,9.43,9.43,0,0,1-8,4.2,1,1,0,0,1,0,.1l.09.28c0,.08,0,.16,0,.24s.09.26.14.39a2.08,2.08,0,0,1,.07.61,2,2,0,0,1,0,.64c0,.06,0,.11,0,.17a1.55,1.55,0,0,0,0,.43,1.31,1.31,0,0,1-.19,1c-.08.09-.2.13-.27,0s-.08-.14-.12-.09a1.23,1.23,0,0,0-.06.79c0,.18.07.38.19.44a.53.53,0,0,0,.17,0c.12,0,.2.17.28.28s.2.24.32.2,0,.22,0,.29.09,0,.14,0a.53.53,0,0,1,.17.14c.1.11.24.21.35.13s0,0,.05,0,0,0,0,0,.1,0,.15,0,.14,0,.21,0,.16,0,.19-.06,0,0,0,0,0,0,0,0l.1.06a.09.09,0,0,0,.06,0c.06,0,.1-.08.13-.16a.27.27,0,0,0,.08.1s.08,0,.1,0a.21.21,0,0,0,0-.11s0-.07.07-.07.12.14.18.07,0-.15.09-.17.06,0,.09,0,0-.08,0-.13a.22.22,0,0,1,.12-.2.59.59,0,0,1,.14,0,.28.28,0,0,0,.16-.27c.07,0,.14-.06.22-.05s.06.05.1.06a.06.06,0,0,0,.08-.07l.12,0h0s0-.11,0-.17h.12a.54.54,0,0,1,.13-.53.68.68,0,0,1,.42-.15,1.68,1.68,0,0,0,.45,0l.22-.08c.1,0,.22,0,.33,0s.16-.08.24-.06l.12.08c.16.08.38,0,.49.13a.88.88,0,0,0,.06.1c.06,0,.13,0,.17-.11l.65-.07a.11.11,0,0,1,.11,0s0,.07,0,.09.08,0,.12,0a1.46,1.46,0,0,0,.36-.16.25.25,0,0,0,.13-.18.34.34,0,0,1,0-.1c0-.08.1-.07.15-.12a.42.42,0,0,0,.07-.23c0-.24.17-.35.2-.58a.26.26,0,0,1,.2-.21,2.46,2.46,0,0,0,.26,0,.71.71,0,0,0,.22-.13l1-.76a.55.55,0,0,1,.17-.11.76.76,0,0,1,.26,0,2.83,2.83,0,0,0,1.21-.2l.44-.13a1.54,1.54,0,0,0,.35-.15c.06,0,.12-.12.19-.17a1.28,1.28,0,0,1,.24-.11,4.59,4.59,0,0,1,1.55-.26.92.92,0,0,0,.58-.11s.08-.06.12-.06.09,0,.13.06l.78.61c.12.08.16.1.28.06a.5.5,0,0,1,.38,0c.12,0,.22.2.33.3s.29.13.36,0,.18.07.14.17c.14,0,.28.17.24.35a.19.19,0,0,1,.25.05.41.41,0,0,1,.08.31h-.16a1.1,1.1,0,0,1,.07.44l.45.3A.36.36,0,0,1,83,38c0,.12,0,.27.06.39a1,1,0,0,1,.39.43l.15,1.08c-.06,0-.09-.1-.15-.14s-.15,0-.11.08.08,0,.13,0,.08.15.11.24a.62.62,0,0,0,.37.36l.23.12a.82.82,0,0,1,0-.35H84A.18.18,0,0,0,84,40l.39-.55a.78.78,0,0,0,.11-.18l.06-.19c.1-.23.34-.28.5-.46s.06-.1.11-.11.06,0,.09,0,.21-.22.24-.39a1,1,0,0,1,.18-.47c0-.05.09-.07.13-.12s0-.51.08-.76a2.64,2.64,0,0,1,.21.89A.34.34,0,0,0,86,38c0,.15.15.28.11.42s-.15.1-.19.19a2.23,2.23,0,0,0-.3,1.23,2.44,2.44,0,0,1,.06.39c0,.13-.06.28-.15.29s-.2-.12-.31-.11c-.08.22-.16.43-.26.64a.2.2,0,0,0,.26-.1.31.31,0,0,0,.42-.2c.1.09.24.17.31,0a.29.29,0,0,0,0-.1c.09-.49.19-1,.28-1.47.21.13.15.56.28.8s.19.21.18.35a.55.55,0,0,1,0,.17,1.46,1.46,0,0,0-.06.66c-.14,0-.28.14-.3.33a.39.39,0,0,0,.54,0s0-.05.08-.06H87a.46.46,0,0,1,.18.16l.42.51a.69.69,0,0,1,.14.22,3.62,3.62,0,0,0,.13.35.75.75,0,0,1,.09.15c.1.2-.06.48,0,.71a.6.6,0,0,0-.11.5,1.18,1.18,0,0,0,.31.49,1.65,1.65,0,0,1,.35.67,1,1,0,0,0,.07.18.39.39,0,0,0,.38.17.47.47,0,0,1,.39.11,1.59,1.59,0,0,1,.16.32c0,.11.14.2.23.16s.09-.31.2-.27.21.28.34.25.08-.06.12-.07.15,0,.21.1.26.34.43.37.14,0,.18.06,0,.1.07.14.1,0,.15,0a.11.11,0,0,1,.11.12,1.65,1.65,0,0,0,.4-.43,1,1,0,0,1,.61-.5c.06,0,.12,0,.16,0a.16.16,0,0,0,.06-.19.27.27,0,0,1-.22-.08.23.23,0,0,1,0-.27c.06-.08.16,0,.24-.08s.06-.09.1-.14.09-.08.13,0,.11.28.13.44a.38.38,0,0,1-.3.39.27.27,0,0,0,0,.2.26.26,0,0,0,.35,0,.49.49,0,0,0,.12-.43c.09,0,.2.06.21.19a1,1,0,0,1,0,.17c0,.21.13.42.29.41,0,.19.09.42.23.39a.46.46,0,0,1,.09-.23,1.16,1.16,0,0,0,.33.73,1.7,1.7,0,0,0,0-.55c-.06,0-.13,0-.15.12,0-.14-.11-.28-.17-.41a.93.93,0,0,0,.88-.24l.09-.13a2,2,0,0,1,1.39-1.05,3.66,3.66,0,0,0,.93-.19l.1-.07a.44.44,0,0,0,.07-.21.1.1,0,0,0,.15.08.24.24,0,0,0,.1-.19,1,1,0,0,0,0-.24s0,0,.06-.06a.17.17,0,0,0,0-.1l-.09-.31,0-.1a.53.53,0,0,1,0-.16,2.33,2.33,0,0,0,0-.38,8.65,8.65,0,0,0,.23-1.5.6.6,0,0,0,.24-.35s.12-.5.08-.5,0,0,0,.07a.28.28,0,0,0,.15-.24.34.34,0,0,0-.1-.28h.11c.16-.61.31-1.21.47-1.81a1.72,1.72,0,0,1,.07-.21c.07-.17.21-.27.29-.43s.09-.24.14-.35c.2-.44.68-.61.77-1.1,0-.15,0-.3,0-.44a1.75,1.75,0,0,1,.11-.24,3.74,3.74,0,0,0,.29-1.62H96.21A.93.93,0,0,1,95.28,33.26ZM92.07,20.87a.6.6,0,0,1,.78.32.61.61,0,0,1-.32.79L91,22.6a.59.59,0,0,1-.23,0,.6.6,0,0,1-.55-.37.61.61,0,0,1,.32-.79Zm-3.52-2,1.15-1.15a.6.6,0,1,1,.85.85l-1.16,1.15a.6.6,0,0,1-.84,0,.6.6,0,0,1-.18-.42A.64.64,0,0,1,88.55,18.89Zm-2.81-1.61.62-1.51a.59.59,0,0,1,.32-.32.6.6,0,0,1,.79.78l-.63,1.51a.6.6,0,0,1-.55.37.64.64,0,0,1-.23-.05A.6.6,0,0,1,85.74,17.28Zm-3.26-2.07a.59.59,0,0,1,.59-.6.6.6,0,0,1,.6.6v1.63a.6.6,0,0,1-.6.6.59.59,0,0,1-.59-.6ZM79,15.42a.59.59,0,0,1,.78.32l.63,1.51a.6.6,0,0,1-.33.78.59.59,0,0,1-.23,0,.6.6,0,0,1-.55-.37l-.62-1.51A.6.6,0,0,1,79,15.42Zm-3.46,2.27a.61.61,0,0,1,.85,0l1.15,1.15a.62.62,0,0,1,.18.43.6.6,0,0,1-.18.42.59.59,0,0,1-.42.17.63.63,0,0,1-.43-.17l-1.15-1.15A.61.61,0,0,1,75.58,17.69Zm-2.29,3.44a.61.61,0,0,1,.79-.33l1.5.63a.6.6,0,0,1,.33.78.61.61,0,0,1-.56.37.59.59,0,0,1-.22,0l-1.51-.62A.6.6,0,0,1,73.29,21.13Zm-.15,4.67a.6.6,0,0,1,0-1.2h1.63a.6.6,0,1,1,0,1.2Zm1,3.75a.59.59,0,0,1-.23.05.6.6,0,0,1-.55-.37.59.59,0,0,1,.32-.78l1.51-.63a.6.6,0,0,1,.46,1.11Zm3.48,1.92-1.16,1.15a.58.58,0,0,1-.84,0,.56.56,0,0,1-.18-.42.6.6,0,0,1,.18-.43l1.15-1.15a.6.6,0,0,1,.85.85Zm2.83,1.61-.63,1.5a.58.58,0,0,1-.55.37.62.62,0,0,1-.23,0,.6.6,0,0,1-.32-.78l.62-1.51a.6.6,0,0,1,1.11.46Zm3.19,2a.6.6,0,0,1-1.2,0V33.47a.6.6,0,0,1,1.2,0Zm3.44-.19a.68.68,0,0,1-.23.05.61.61,0,0,1-.56-.37l-.62-1.51A.6.6,0,0,1,86,32.3a.61.61,0,0,1,.79.32l.62,1.51A.6.6,0,0,1,87.08,34.91Zm-6.63-3.34a6.88,6.88,0,1,1,9-3.72A6.88,6.88,0,0,1,80.45,31.57Zm10,1a.6.6,0,0,1-.42.18.64.64,0,0,1-.43-.18l-1.15-1.15a.6.6,0,1,1,.85-.85l1.15,1.15a.64.64,0,0,1,.18.43A.6.6,0,0,1,90.46,32.62Zm2.3-3.39a.61.61,0,0,1-.56.37.68.68,0,0,1-.23-.05l-1.5-.62a.63.63,0,0,1-.33-.33.59.59,0,0,1,0-.45.63.63,0,0,1,.33-.33.61.61,0,0,1,.46,0l1.5.63A.6.6,0,0,1,92.76,29.23Zm.26-3.4H91.39a.59.59,0,0,1-.59-.6.58.58,0,0,1,.59-.59H93a.59.59,0,0,1,.6.59A.6.6,0,0,1,93,25.83Z" fill="#fcb61d"/><path d="M7.19,16.2,0,33.26H4.91l1.21-3h6.56l1.21,3h5L11.71,16.2ZM7.5,26.56l1.91-4.79,1.89,4.79Z" fill="#231f20"/><polygon points="31.91 25.27 24.94 16.32 20.57 16.32 20.57 33.26 25.21 33.26 25.21 23.97 32.47 33.26 36.56 33.26 36.56 16.32 31.91 16.32 31.91 25.27" fill="#231f20"/><polygon points="39.34 20.27 47.54 20.27 39.05 29.85 39.05 33.26 54 33.26 54 29.29 45.51 29.29 54 19.71 54 16.32 39.34 16.32 39.34 20.27" fill="#231f20"/><path d="M64,29.32c-2.37,0-4-2-4-4.53v-.05a4.21,4.21,0,0,1,4-4.5,4.59,4.59,0,0,1,3.7,2l3.53-2.74A8.34,8.34,0,0,0,64.07,16a8.69,8.69,0,0,0-8.91,8.81v.05A8.6,8.6,0,0,0,63.9,33.6a8.52,8.52,0,0,0,7.47-3.82l-3.53-2.52A4.65,4.65,0,0,1,64,29.32Z" fill="#231f20"/><path d="M103.49,16.32H96.21V33.26h4.69V28.42h2.35c4.18,0,7.26-2.1,7.26-6.12v-.05C110.51,18.52,107.75,16.32,103.49,16.32Zm2.35,6.2c0,1.33-1,2.22-2.69,2.22H100.9V20.27h2.23c1.67,0,2.71.75,2.71,2.2Z" fill="#231f20"/></svg>