<svg xmlns="http://www.w3.org/2000/svg" width="165" height="55" viewBox="0 0 165 55"><polygon points="37.47 24.22 50.31 24.22 50.31 20.5 41.81 20.5 41.81 17.98 49.4 17.98 49.4 14.53 41.81 14.53 41.81 12.11 50.2 12.11 50.2 8.4 37.47 8.4 37.47 24.22" fill="#231f20"/><path d="M58.13,22a2.7,2.7,0,1,0-2.68,2.72A2.68,2.68,0,0,0,58.13,22" fill="#231f20"/><path d="M7.41,24.5c3.85,0,6.4-1.93,6.4-5.16v0c0-3-2.26-4.14-5.88-4.93-2.21-.5-2.76-.82-2.76-1.54v-.05c0-.58.52-1,1.59-1a7.78,7.78,0,0,1,4.43,1.56l2.19-3.1a10,10,0,0,0-6.51-2.1c-3.8,0-6.12,2.12-6.12,5.06v.05c0,3.23,2.59,4.18,6,5,2.17.52,2.7.86,2.7,1.54v0c0,.68-.64,1.09-1.84,1.09A8.21,8.21,0,0,1,2.44,19L0,21.87A11.1,11.1,0,0,0,7.41,24.5" fill="#231f20"/><path d="M19.79,16.27V12.08h2.09c1.56,0,2.53.7,2.53,2.06v0c0,1.24-1,2.08-2.51,2.08Zm-4.38,8h4.38V19.7H22c3.91,0,6.78-2,6.78-5.72v0c0-3.48-2.57-5.54-6.56-5.54h-6.8Z" fill="#231f20"/><rect x="30.33" y="8.4" width="4.38" height="15.82" fill="#231f20"/><path d="M67.86,11.65A3.25,3.25,0,0,0,64.4,8.41H61.83v6.52H64.4A3.26,3.26,0,0,0,67.86,11.65ZM64.4,13.5h-1V9.83h1a1.74,1.74,0,0,1,1.83,1.86A1.72,1.72,0,0,1,64.4,13.5Z" fill="#0099d9"/><polygon points="73.91 13.52 70.46 13.52 70.46 12.35 73.46 12.35 73.46 10.94 70.46 10.94 70.46 9.82 73.87 9.82 73.87 8.41 68.9 8.41 68.9 14.93 73.91 14.93 73.91 13.52" fill="#0099d9"/><polygon points="76.52 12.47 79.55 12.47 79.55 11.04 76.52 11.04 76.52 9.84 79.96 9.84 79.96 8.41 74.96 8.41 74.96 14.93 76.52 14.93 76.52 12.47" fill="#0099d9"/><polygon points="85.89 13.52 82.43 13.52 82.43 12.35 85.43 12.35 85.43 10.94 82.43 10.94 82.43 9.82 85.84 9.82 85.84 8.41 80.88 8.41 80.88 14.93 85.89 14.93 85.89 13.52" fill="#0099d9"/><polygon points="88.48 11.04 91.41 14.89 91.44 14.93 92.75 14.93 92.75 8.41 91.21 8.41 91.21 12.17 88.37 8.44 88.34 8.41 86.93 8.41 86.93 14.93 88.48 14.93 88.48 11.04" fill="#0099d9"/><path d="M96.45,13.62a2.85,2.85,0,0,1-1.85-.75l-.06,0-.93,1.11.06.05a4.11,4.11,0,0,0,2.75,1c1.49,0,2.42-.79,2.42-2.07s-.83-1.66-2.08-2c-1.09-.28-1.31-.41-1.31-.78s.29-.47.73-.47a2.88,2.88,0,0,1,1.61.61l.07,0,.81-1.18,0,0a3.78,3.78,0,0,0-2.42-.83,2.08,2.08,0,0,0-2.31,2c0,1.35.94,1.7,2.17,2,1.06.26,1.22.43,1.22.74S97,13.62,96.45,13.62Z" fill="#0099d9"/><polygon points="104.86 13.52 101.41 13.52 101.41 12.35 104.41 12.35 104.41 10.94 101.41 10.94 101.41 9.82 104.82 9.82 104.82 8.41 99.86 8.41 99.86 14.93 104.86 14.93 104.86 13.52" fill="#0099d9"/><polygon points="108.86 9.31 107.41 9.31 107.41 10.94 105.76 10.94 105.76 12.36 107.41 12.36 107.41 13.99 108.86 13.99 108.86 12.36 110.5 12.36 110.5 10.94 108.86 10.94 108.86 9.31" fill="#0099d9"/><path d="M66.62,22.1l-.06,0a2.21,2.21,0,0,1-1.62.73,1.82,1.82,0,0,1-1.76-1.94A1.8,1.8,0,0,1,64.94,19a2.3,2.3,0,0,1,1.58.7l.06.05,1-1.14,0,0a3.39,3.39,0,0,0-2.57-1A3.32,3.32,0,0,0,61.55,21a3.28,3.28,0,0,0,3.35,3.35,3.32,3.32,0,0,0,2.66-1.16l.06-.06Z" fill="#0099d9"/><path d="M71.68,24.33a3.39,3.39,0,0,0,3.47-3.39,3.33,3.33,0,0,0-3.46-3.35A3.39,3.39,0,0,0,68.22,21,3.33,3.33,0,0,0,71.68,24.33Zm0-1.45a1.85,1.85,0,0,1-1.84-1.94A1.82,1.82,0,0,1,71.68,19,1.85,1.85,0,0,1,73.52,21,1.82,1.82,0,0,1,71.69,22.88Z" fill="#0099d9"/><polygon points="81.17 24.22 82.72 24.22 82.72 17.7 81.08 17.7 79.45 20.32 77.85 17.74 77.83 17.7 76.19 17.7 76.19 24.22 77.73 24.22 77.73 20.28 79.35 22.75 79.38 22.78 79.5 22.78 81.17 20.26 81.17 24.22" fill="#0099d9"/><polygon points="90.57 24.22 90.57 17.7 88.94 17.7 87.31 20.32 85.7 17.74 85.68 17.7 84.04 17.7 84.04 24.22 85.58 24.22 85.58 20.28 87.2 22.75 87.23 22.78 87.35 22.78 89.02 20.26 89.02 24.22 90.57 24.22" fill="#0099d9"/><polygon points="96.86 19.11 96.86 17.7 91.89 17.7 91.89 24.22 96.9 24.22 96.9 22.81 93.45 22.81 93.45 21.64 96.45 21.64 96.45 20.23 93.45 20.23 93.45 19.11 96.86 19.11" fill="#0099d9"/><path d="M103.42,19.88a2.08,2.08,0,0,0-.57-1.51,2.63,2.63,0,0,0-1.91-.67H98v6.52h1.56v-2h1l1.37,2h1.83l-1.58-2.31A2.07,2.07,0,0,0,103.42,19.88Zm-3.91-.75h1.31c.38,0,1,.1,1,.84,0,.51-.38.82-1,.82H99.51Z" fill="#0099d9"/><path d="M109.21,22.15a2.23,2.23,0,0,1-1.62.73,1.82,1.82,0,0,1-1.77-1.94,1.8,1.8,0,0,1,1.77-1.9,2.28,2.28,0,0,1,1.57.7l.06.05,1-1.14-.06,0a3.35,3.35,0,0,0-2.56-1A3.32,3.32,0,0,0,104.2,21a3.27,3.27,0,0,0,3.34,3.35,3.32,3.32,0,0,0,2.67-1.16l.05-.06-1-1Z" fill="#0099d9"/><rect x="111.21" y="17.7" width="1.56" height="6.51" fill="#0099d9"/><path d="M117.77,17.66h-1.39l-2.8,6.56h1.6l.59-1.43h2.58l.58,1.43h1.64l-2.78-6.51Zm0,3.74h-1.45l.73-1.77Z" fill="#0099d9"/><polygon points="122.87 22.79 122.87 17.7 121.31 17.7 121.31 24.22 126.04 24.22 126.04 22.79 122.87 22.79" fill="#0099d9"/><path d="M64.52,29.55c-1.09-.28-1.32-.41-1.32-.78s.29-.47.74-.47a2.88,2.88,0,0,1,1.61.61l.07.05.81-1.18-.06-.05A3.73,3.73,0,0,0,64,26.9a2.08,2.08,0,0,0-2.31,2c0,1.36.94,1.7,2.17,2,1.05.27,1.22.43,1.22.74s-.31.52-.83.52a2.85,2.85,0,0,1-1.85-.75l-.06-.05-.93,1.11.05.05a4.13,4.13,0,0,0,2.76,1c1.49,0,2.42-.79,2.42-2.07S65.76,29.87,64.52,29.55Z" fill="#0099d9"/><polygon points="69.17 30.93 72.17 30.93 72.17 29.53 69.17 29.53 69.17 28.4 72.58 28.4 72.58 26.99 67.61 26.99 67.61 33.51 72.62 33.51 72.62 32.1 69.17 32.1 69.17 30.93" fill="#0099d9"/><polygon points="77.94 30.75 75.1 27.03 75.08 26.99 73.67 26.99 73.67 33.51 75.21 33.51 75.21 29.63 78.15 33.48 78.17 33.51 79.48 33.51 79.48 26.99 77.94 26.99 77.94 30.75" fill="#0099d9"/><path d="M83.49,29.55c-1.09-.28-1.31-.41-1.31-.78s.29-.47.74-.47a2.93,2.93,0,0,1,1.61.61l.06.05.82-1.18-.06-.05a3.76,3.76,0,0,0-2.42-.83,2.08,2.08,0,0,0-2.3,2c0,1.36.94,1.7,2.17,2,1,.27,1.22.43,1.22.74s-.32.52-.84.52a2.85,2.85,0,0,1-1.85-.75l-.06-.05-.93,1.11.06.05a4.13,4.13,0,0,0,2.75,1c1.49,0,2.42-.79,2.42-2.07S84.74,29.87,83.49,29.55Z" fill="#0099d9"/><rect x="86.65" y="26.99" width="1.56" height="6.51" fill="#0099d9"/><polygon points="93.88 30.75 91.04 27.03 91.02 26.99 89.61 26.99 89.61 33.51 91.15 33.51 91.15 29.63 94.08 33.48 94.11 33.51 95.42 33.51 95.42 26.99 93.88 26.99 93.88 30.75" fill="#0099d9"/><path d="M99.77,31.06h1.4v.78a2.12,2.12,0,0,1-1.23.34,1.93,1.93,0,0,1-.1-3.85,2.25,2.25,0,0,1,1.61.63l.06.05,1-1.18-.07,0a3.55,3.55,0,0,0-2.55-.9,3.36,3.36,0,0,0-3.41,3.39,3.28,3.28,0,0,0,3.42,3.35,4.19,4.19,0,0,0,2.77-1l0,0V29.69H99.77Z" fill="#0099d9"/><path d="M.73,38.45h3.2c2.93,0,4.64,1.7,4.64,4.08v0c0,2.38-1.73,4.15-4.69,4.15H.73Zm2.29,2v4.21H4a2,2,0,0,0,2.29-2.09v0A2,2,0,0,0,4,40.47Z" fill="#231f20"/><path d="M9.82,38.45h2.29v8.26H9.82Z" fill="#231f20"/><path d="M13.34,42.6v0a4.28,4.28,0,0,1,4.44-4.29,4.76,4.76,0,0,1,3.34,1.19l-1.34,1.63a2.87,2.87,0,0,0-2-.78,2.16,2.16,0,0,0-2.11,2.25v0a2.18,2.18,0,0,0,2.24,2.3,2.32,2.32,0,0,0,1.32-.34v-1H17.62V41.88h3.79v3.71a5.51,5.51,0,0,1-3.59,1.28A4.23,4.23,0,0,1,13.34,42.6Z" fill="#231f20"/><path d="M22.74,38.45H25v8.26H22.74Z" fill="#231f20"/><path d="M28.55,40.46H26.09v-2h7.22v2H30.84v6.25H28.55Z" fill="#231f20"/><path d="M36.11,38.39h2.2l3.51,8.32H39.37l-.59-1.49H35.59L35,46.71H32.6Zm2,5-.92-2.33-.93,2.33Z" fill="#231f20"/><path d="M42.62,38.45h2.29V44.7h4v2H42.62Z" fill="#231f20"/><path d="M53.16,38.45h6.6v2H55.45v1.4h3.9v1.9h-3.9v3H53.16Z" fill="#231f20"/><path d="M60.54,42.6v0a4.45,4.45,0,0,1,8.89,0v0a4.45,4.45,0,0,1-8.89,0Zm6.54,0v0A2.13,2.13,0,0,0,65,40.35a2.1,2.1,0,0,0-2.09,2.21v0A2.15,2.15,0,0,0,65,44.81,2.1,2.1,0,0,0,67.08,42.6Z" fill="#231f20"/><path d="M70.61,38.45h3.9a3.65,3.65,0,0,1,2.69.89,2.59,2.59,0,0,1,.73,1.92v0a2.61,2.61,0,0,1-1.7,2.55l2,2.88H75.57l-1.66-2.5h-1v2.5H70.61Zm3.81,4c.76,0,1.22-.37,1.22-1v0c0-.66-.48-1-1.24-1H72.89v2Z" fill="#231f20"/><path d="M79,43.09V38.45H81.3V43c0,1.19.6,1.76,1.52,1.76s1.53-.55,1.53-1.7V38.45h2.31V43c0,2.65-1.52,3.83-3.86,3.83S79,45.67,79,43.09Z" fill="#231f20"/><path d="M88,38.45h2.41l2,3.2,2-3.2h2.42v8.26H94.51V42L92.4,45.2h0L90.26,42v4.73H88Z" fill="#231f20"/></svg>