<svg xmlns="http://www.w3.org/2000/svg" width="165" height="55" viewBox="0 0 165 55"><polygon points="37.47 28.68 50.31 28.68 50.31 24.95 41.81 24.95 41.81 22.44 49.4 22.44 49.4 18.98 41.81 18.98 41.81 16.56 50.2 16.56 50.2 12.85 37.47 12.85 37.47 28.68" fill="#231f20"/><path d="M58.13,26.44a2.7,2.7,0,1,0-2.68,2.72,2.68,2.68,0,0,0,2.68-2.72" fill="#231f20"/><path d="M7.41,29c3.85,0,6.4-1.92,6.4-5.15v-.05c0-3-2.26-4.14-5.87-4.93-2.22-.5-2.77-.81-2.77-1.54v0c0-.59.53-1,1.59-1a7.78,7.78,0,0,1,4.43,1.56l2.19-3.1a10,10,0,0,0-6.51-2.1c-3.8,0-6.12,2.13-6.12,5.06v.05c0,3.23,2.59,4.18,6,4.95,2.17.52,2.7.86,2.7,1.54v.05c0,.67-.64,1.08-1.84,1.08a8.15,8.15,0,0,1-5.13-1.9L0,26.33A11.1,11.1,0,0,0,7.41,29" fill="#231f20"/><path d="M19.79,20.72V16.54h2.09c1.56,0,2.53.7,2.53,2.06v0c0,1.24-1,2.08-2.51,2.08Zm-4.38,8h4.38V24.15H22c3.91,0,6.78-2,6.78-5.71v-.05c0-3.48-2.57-5.54-6.56-5.54h-6.8Z" fill="#231f20"/><rect x="30.33" y="12.85" width="4.38" height="15.82" fill="#231f20"/><path d="M64.51,12.87H61.83v6.51H63.4V17.47h1c1.61,0,2.65-.9,2.65-2.33A2.25,2.25,0,0,0,64.51,12.87ZM63.4,14.29h1c.67,0,1,.32,1,.9a.91.91,0,0,1-1,.88h-1Z" fill="#0099d9"/><polygon points="71.85 12.87 71.85 15.38 69.43 15.38 69.43 12.87 67.87 12.87 67.87 19.38 69.43 19.38 69.43 16.83 71.85 16.83 71.85 19.38 73.41 19.38 73.41 12.87 71.85 12.87" fill="#0099d9"/><path d="M77.93,12.76a3.38,3.38,0,0,0-3.47,3.38,3.32,3.32,0,0,0,3.45,3.35,3.39,3.39,0,0,0,3.47-3.39A3.32,3.32,0,0,0,77.93,12.76Zm0,1.45a1.92,1.92,0,1,1-1.83,1.89A1.82,1.82,0,0,1,77.91,14.21Z" fill="#0099d9"/><polygon points="81.82 12.87 81.82 14.31 83.75 14.31 83.75 19.38 85.31 19.38 85.31 14.31 87.25 14.31 87.25 12.87 81.82 12.87" fill="#0099d9"/><path d="M91.16,12.76a3.38,3.38,0,0,0-3.47,3.38,3.32,3.32,0,0,0,3.45,3.35,3.39,3.39,0,0,0,3.47-3.39A3.32,3.32,0,0,0,91.16,12.76Zm0,1.45a1.92,1.92,0,1,1-1.83,1.89A1.82,1.82,0,0,1,91.14,14.21Z" fill="#0099d9"/><polygon points="99.93 12.87 99.93 16.62 97.09 12.9 97.07 12.87 95.66 12.87 95.66 19.38 97.2 19.38 97.2 15.5 100.14 19.35 100.16 19.38 101.47 19.38 101.47 12.87 99.93 12.87" fill="#0099d9"/><rect x="102.86" y="12.87" width="1.56" height="6.51" fill="#0099d9"/><path d="M110.6,17.26l-.06.06a2.24,2.24,0,0,1-1.62.72,1.82,1.82,0,0,1-1.76-1.94,1.79,1.79,0,0,1,1.76-1.89,2.27,2.27,0,0,1,1.58.69l.06.06,1-1.15,0-.05a3.42,3.42,0,0,0-2.57-1,3.31,3.31,0,0,0-3.4,3.38,3.28,3.28,0,0,0,3.35,3.35,3.34,3.34,0,0,0,2.67-1.16l0-.06Z" fill="#0099d9"/><path d="M115.17,15.42c-1.09-.28-1.31-.41-1.31-.78s.29-.47.73-.47a2.88,2.88,0,0,1,1.61.61l.07.05.81-1.18,0-.05a3.77,3.77,0,0,0-2.42-.82,2.08,2.08,0,0,0-2.31,2c0,1.36,1,1.71,2.17,2,1.06.27,1.23.43,1.23.75s-.32.52-.84.52a2.81,2.81,0,0,1-1.85-.76l-.06-.05L112,18.38l.06.05a4.11,4.11,0,0,0,2.75,1c1.49,0,2.42-.79,2.42-2.07S116.42,15.74,115.17,15.42Z" fill="#0099d9"/><polygon points="63.39 27.27 63.39 26.09 66.39 26.09 66.39 24.69 63.39 24.69 63.39 23.56 66.8 23.56 66.8 22.16 61.83 22.16 61.83 28.67 66.84 28.67 66.84 27.27 63.39 27.27" fill="#0099d9"/><path d="M71.93,22.16v3.72c0,.93-.46,1.44-1.29,1.44s-1.29-.53-1.29-1.49V22.16H67.79v3.71a2.61,2.61,0,0,0,2.83,2.9,2.64,2.64,0,0,0,2.87-2.95V22.16Z" fill="#0099d9"/><path d="M78.87,26.36a2.23,2.23,0,0,0,.75-3.53,2.63,2.63,0,0,0-1.91-.67h-3v6.51h1.56v-2h1l1.36,2h1.83Zm-2.59-2.78h1.31c.38,0,1,.11,1,.84,0,.51-.38.82-1,.82H76.28Z" fill="#0099d9"/><path d="M84.44,22.05A3.39,3.39,0,0,0,81,25.43a3.33,3.33,0,0,0,3.45,3.35A3.39,3.39,0,0,0,87.9,25.4,3.33,3.33,0,0,0,84.44,22.05Zm0,1.45a1.92,1.92,0,1,1-1.82,1.9A1.81,1.81,0,0,1,84.42,23.5Z" fill="#0099d9"/><path d="M91.62,22.16H88.94v6.51H90.5V26.76h1c1.61,0,2.65-.9,2.65-2.33A2.25,2.25,0,0,0,91.62,22.16ZM90.5,23.58h1c.68,0,1.06.32,1.06.9a.91.91,0,0,1-1,.88h-1Z" fill="#0099d9"/><polygon points="96.53 27.27 96.53 26.09 99.53 26.09 99.53 24.69 96.53 24.69 96.53 23.56 99.94 23.56 99.94 22.16 94.97 22.16 94.97 28.67 99.98 28.67 99.98 27.27 96.53 27.27" fill="#0099d9"/><path d="M.73,34h3.2c2.93,0,4.64,1.7,4.64,4.08v0c0,2.38-1.73,4.15-4.69,4.15H.73ZM3,36v4.2H4a2,2,0,0,0,2.29-2.08v0A2,2,0,0,0,4,36Z" fill="#231f20"/><path d="M9.82,34h2.29v8.25H9.82Z" fill="#231f20"/><path d="M13.34,38.15v0a4.29,4.29,0,0,1,4.44-4.3A4.76,4.76,0,0,1,21.12,35l-1.34,1.62a2.92,2.92,0,0,0-2-.78,2.16,2.16,0,0,0-2.11,2.26v0a2.19,2.19,0,0,0,2.24,2.3,2.32,2.32,0,0,0,1.32-.34v-1H17.62V37.43h3.79v3.7a5.51,5.51,0,0,1-3.59,1.29A4.23,4.23,0,0,1,13.34,38.15Z" fill="#231f20"/><path d="M22.74,34H25v8.25H22.74Z" fill="#231f20"/><path d="M28.55,36H26.09V34h7.22v2H30.84v6.25H28.55Z" fill="#231f20"/><path d="M36.11,33.94h2.2l3.51,8.31H39.37l-.59-1.48H35.59L35,42.25H32.6Zm2,5.05-.92-2.34L36.26,39Z" fill="#231f20"/><path d="M42.62,34h2.29v6.25h4v2H42.62Z" fill="#231f20"/><path d="M53.16,34h6.6v2H55.45v1.41h3.9v1.9h-3.9v2.94H53.16Z" fill="#231f20"/><path d="M60.54,38.15v0A4.33,4.33,0,0,1,65,33.83a4.29,4.29,0,0,1,4.43,4.27v0a4.45,4.45,0,0,1-8.89,0Zm6.54,0v0A2.13,2.13,0,0,0,65,35.9a2.1,2.1,0,0,0-2.09,2.2v0A2.14,2.14,0,0,0,65,40.35,2.09,2.09,0,0,0,67.08,38.15Z" fill="#231f20"/><path d="M70.61,34h3.9a3.69,3.69,0,0,1,2.69.88,2.61,2.61,0,0,1,.73,1.93v0a2.62,2.62,0,0,1-1.7,2.55l2,2.87H75.57l-1.66-2.5h-1v2.5H70.61Zm3.81,4c.76,0,1.22-.38,1.22-1v0c0-.66-.48-1-1.24-1H72.89v2Z" fill="#231f20"/><path d="M79,38.63V34H81.3v4.59c0,1.19.6,1.75,1.52,1.75s1.53-.54,1.53-1.7V34h2.31v4.57c0,2.66-1.52,3.83-3.86,3.83S79,41.22,79,38.63Z" fill="#231f20"/><path d="M88,34h2.41l2,3.19,2-3.19h2.42v8.25H94.51V37.51L92.4,40.74h0l-2.1-3.22v4.73H88Z" fill="#231f20"/></svg>