<svg xmlns="http://www.w3.org/2000/svg" width="165" height="55" viewBox="0 0 165 55"><polygon points="37.47 35.3 50.31 35.3 50.31 31.58 41.81 31.58 41.81 29.06 49.4 29.06 49.4 25.61 41.81 25.61 41.81 23.18 50.2 23.18 50.2 19.48 37.47 19.48 37.47 35.3" fill="#231f20"/><path d="M58.13,33.07a2.7,2.7,0,1,0-2.68,2.72,2.68,2.68,0,0,0,2.68-2.72" fill="#231f20"/><path d="M7.41,35.58c3.85,0,6.4-1.92,6.4-5.16v0c0-3-2.26-4.14-5.88-4.93-2.21-.5-2.76-.82-2.76-1.54v-.05c0-.58.53-1,1.59-1a7.78,7.78,0,0,1,4.43,1.56l2.19-3.1a10,10,0,0,0-6.51-2.1c-3.8,0-6.12,2.12-6.12,5.06v.05c0,3.23,2.59,4.18,6,4.95,2.17.52,2.7.86,2.7,1.54v0c0,.68-.64,1.09-1.84,1.09A8.21,8.21,0,0,1,2.44,30L0,33a11.15,11.15,0,0,0,7.41,2.62" fill="#231f20"/><path d="M19.79,27.35V23.16h2.09c1.56,0,2.53.7,2.53,2.06v.05c0,1.24-1,2.08-2.51,2.08ZM15.41,35.3h4.38V30.78H22c3.91,0,6.78-2,6.78-5.72v0c0-3.48-2.57-5.54-6.56-5.54h-6.8Z" fill="#231f20"/><rect x="30.33" y="19.48" width="4.38" height="15.82" fill="#231f20"/><polygon points="66.72 19.49 65.1 22.11 63.49 19.53 63.47 19.49 61.83 19.49 61.83 26.01 63.37 26.01 63.37 22.07 65.02 24.57 65.14 24.57 66.81 22.05 66.81 26.01 68.36 26.01 68.36 19.49 66.72 19.49" fill="#f7941d"/><polygon points="71.24 24.6 71.24 23.43 74.24 23.43 74.24 22.02 71.24 22.02 71.24 20.9 74.65 20.9 74.65 19.49 69.69 19.49 69.69 26.01 74.69 26.01 74.69 24.6 71.24 24.6" fill="#f7941d"/><path d="M78.3,19.49H75.74V26H78.3a3.27,3.27,0,1,0,0-6.52Zm-1,1.43h1a1.83,1.83,0,1,1,0,3.66h-1Z" fill="#f7941d"/><rect x="82.87" y="19.49" width="1.56" height="6.51" fill="#f7941d"/><path d="M90.61,23.89l-.06.05a2.21,2.21,0,0,1-1.62.73,1.82,1.82,0,0,1-1.76-1.94,1.8,1.8,0,0,1,1.76-1.9,2.26,2.26,0,0,1,1.57.7l.07.06,1-1.15,0-.05a3.39,3.39,0,0,0-2.57-1,3.32,3.32,0,0,0-3.4,3.39,3.43,3.43,0,0,0,6,2.18l.06-.05Z" fill="#f7941d"/><path d="M96.1,19.45H94.7L92,25.89l0,.12h1.6l.58-1.43h2.58L97.24,26l0,.05H98.9Zm0,3.74H94.66l.72-1.77Z" fill="#f7941d"/><polygon points="101.2 24.57 101.2 19.49 99.64 19.49 99.64 26.01 104.37 26.01 104.37 24.57 101.2 24.57" fill="#f7941d"/><rect x="61.9" y="28.78" width="1.56" height="6.51" fill="#f7941d"/><polygon points="69.74 28.78 68.11 31.4 66.51 28.82 66.49 28.78 64.85 28.78 64.85 35.3 66.38 35.3 66.38 31.36 68.03 33.86 68.16 33.86 69.82 31.34 69.82 35.3 71.38 35.3 71.38 28.78 69.74 28.78" fill="#f7941d"/><path d="M76.16,28.74h-1.4L72,35.19,72,35.3h1.61l.58-1.43h2.58l.56,1.38,0,0H79Zm0,3.74H74.71l.73-1.77Z" fill="#f7941d"/><path d="M82.4,31.48v1.37h1.41v.78a2.15,2.15,0,0,1-1.24.34,1.93,1.93,0,0,1-.1-3.85,2.27,2.27,0,0,1,1.62.63l.06.05.93-1.12,0-.06-.06-.06a3.62,3.62,0,0,0-2.55-.89,3.36,3.36,0,0,0-3.42,3.39,3.28,3.28,0,0,0,3.43,3.35,4.21,4.21,0,0,0,2.77-1l0,0V31.48Z" fill="#f7941d"/><rect x="86.53" y="28.78" width="1.56" height="6.51" fill="#f7941d"/><polygon points="93.76 28.78 93.76 32.54 90.92 28.81 90.9 28.78 89.49 28.78 89.49 35.3 91.03 35.3 91.03 31.42 93.97 35.27 93.99 35.3 95.3 35.3 95.3 28.78 93.76 28.78" fill="#f7941d"/><path d="M99.65,31.48v1.37h1.41v.78a2.15,2.15,0,0,1-1.24.34,1.93,1.93,0,0,1-.1-3.85,2.23,2.23,0,0,1,1.61.63l.06.05.94-1.12,0-.06-.06-.06a3.63,3.63,0,0,0-2.56-.89,3.36,3.36,0,0,0-3.41,3.39,3.28,3.28,0,0,0,3.43,3.35,4.21,4.21,0,0,0,2.77-1l0,0V31.48Z" fill="#f7941d"/></svg>