<svg xmlns="http://www.w3.org/2000/svg" width="165" height="55" viewBox="0 0 165 55"><path d="M66.6,13c0-1.2-.84-1.66-2.08-2-1.09-.28-1.32-.41-1.32-.78s.29-.47.74-.47a2.88,2.88,0,0,1,1.61.61l.07,0,.81-1.18-.06,0A3.73,3.73,0,0,0,64,8.32a2.08,2.08,0,0,0-2.31,2c0,1.35.94,1.7,2.17,2,1.05.26,1.22.43,1.22.74s-.31.52-.83.52a2.85,2.85,0,0,1-1.85-.75l-.06,0-.93,1.11.05.05a4.13,4.13,0,0,0,2.76,1C65.67,15,66.6,14.23,66.6,13Z" fill="#008071"/><polygon points="69.15 10.99 70.77 13.46 70.8 13.49 70.92 13.49 72.59 10.97 72.59 14.93 74.14 14.93 74.14 8.41 72.5 8.41 70.88 11.03 69.27 8.45 69.25 8.41 67.61 8.41 67.61 14.93 69.15 14.93 69.15 10.99" fill="#008071"/><path d="M77.06,13.5h2.59l.58,1.43h1.64L79.09,8.42l0-.05H77.68l-2.8,6.56h1.6Zm.57-1.39.72-1.77.73,1.77Z" fill="#008071"/><path d="M84.17,12.89h1l1.36,2h1.83l-1.58-2.31a2.07,2.07,0,0,0,1.32-2,2.08,2.08,0,0,0-.57-1.51,2.63,2.63,0,0,0-1.91-.67h-3v6.52h1.56Zm0-3.05h1.31c.38,0,1,.1,1,.84,0,.5-.38.82-1,.82H84.17Z" fill="#008071"/><polygon points="90.62 14.93 92.18 14.93 92.18 9.86 94.12 9.86 94.12 8.41 88.69 8.41 88.69 9.86 90.62 9.86 90.62 14.93" fill="#008071"/><path d="M100.05,13.62a2.84,2.84,0,0,1-1.84-.75l-.07,0-.92,1.11,0,.05A4.13,4.13,0,0,0,100,15c1.49,0,2.41-.79,2.41-2.07s-.83-1.66-2.07-2-1.32-.41-1.32-.78.29-.47.74-.47a2.9,2.9,0,0,1,1.61.61l.07,0,.81-1.18-.06,0a3.73,3.73,0,0,0-2.41-.83,2.08,2.08,0,0,0-2.31,2c0,1.35.94,1.7,2.17,2,1,.26,1.22.43,1.22.74S100.58,13.62,100.05,13.62Z" fill="#008071"/><polygon points="104.94 14.93 106.5 14.93 106.5 9.86 108.44 9.86 108.44 8.41 103.01 8.41 103.01 9.86 104.94 9.86 104.94 14.93" fill="#008071"/><path d="M110.88,12.89h1l1.37,2h1.83l-1.59-2.31a2.07,2.07,0,0,0,1.33-2,2.08,2.08,0,0,0-.57-1.51,2.64,2.64,0,0,0-1.92-.67h-3v6.52h1.57Zm0-3.05h1.31c.38,0,1,.1,1,.84,0,.5-.38.82-1,.82h-1.33Z" fill="#008071"/><path d="M118.58,15a2.66,2.66,0,0,0,2.88-2.95V8.41h-1.57v3.72c0,.93-.46,1.45-1.29,1.45s-1.29-.53-1.29-1.49V8.41h-1.56v3.71A2.61,2.61,0,0,0,118.58,15Z" fill="#008071"/><path d="M125.74,15a3.32,3.32,0,0,0,2.67-1.16l.05-.06-1-1-.06,0a2.23,2.23,0,0,1-1.62.73A1.82,1.82,0,0,1,124,11.65a1.8,1.8,0,0,1,1.77-1.9,2.26,2.26,0,0,1,1.57.7l.06.05,1-1.14-.06,0a3.35,3.35,0,0,0-2.56-1,3.31,3.31,0,0,0-3.4,3.37v0A3.27,3.27,0,0,0,125.74,15Z" fill="#008071"/><polygon points="128.9 9.86 130.83 9.86 130.83 14.93 132.4 14.93 132.4 9.86 134.33 9.86 134.33 8.41 128.9 8.41 128.9 9.86" fill="#008071"/><path d="M137.94,15a2.65,2.65,0,0,0,2.87-2.95V8.41h-1.56v3.72c0,.93-.46,1.45-1.29,1.45s-1.3-.53-1.3-1.49V8.41H135.1v3.71A2.62,2.62,0,0,0,137.94,15Z" fill="#008071"/><path d="M145.94,14.93h1.83l-1.58-2.31a2.07,2.07,0,0,0,1.32-2,2.08,2.08,0,0,0-.57-1.51A2.63,2.63,0,0,0,145,8.41h-3v6.52h1.56v-2h1ZM143.6,9.84h1.31c.38,0,1,.1,1,.84,0,.5-.38.82-1,.82H143.6Z" fill="#008071"/><polygon points="150.12 12.35 153.12 12.35 153.12 10.94 150.12 10.94 150.12 9.82 153.53 9.82 153.53 8.41 148.57 8.41 148.57 14.93 153.58 14.93 153.58 13.52 150.12 13.52 150.12 12.35" fill="#008071"/><path d="M157.31,11c-1.1-.28-1.32-.41-1.32-.78s.29-.47.74-.47a2.88,2.88,0,0,1,1.61.61l.07,0,.81-1.18-.06,0a3.73,3.73,0,0,0-2.41-.83,2.08,2.08,0,0,0-2.31,2c0,1.35.94,1.7,2.17,2,1,.26,1.22.43,1.22.74s-.31.52-.84.52a2.84,2.84,0,0,1-1.84-.75l-.07,0-.92,1.11.05.05A4.13,4.13,0,0,0,157,15c1.49,0,2.41-.79,2.41-2.07S158.55,11.29,157.31,11Z" fill="#008071"/><polygon points="163.35 10.94 163.35 9.31 161.9 9.31 161.9 10.94 160.26 10.94 160.26 12.36 161.9 12.36 161.9 13.99 163.35 13.99 163.35 12.36 165 12.36 165 10.94 163.35 10.94" fill="#008071"/><polygon points="66.11 21.46 63.27 17.73 63.25 17.7 61.83 17.7 61.83 24.22 63.38 24.22 63.38 20.34 66.31 24.18 66.34 24.22 67.65 24.22 67.65 17.7 66.11 17.7 66.11 21.46" fill="#008071"/><path d="M68.69,21v0a3.33,3.33,0,0,0,3.46,3.35,3.39,3.39,0,0,0,3.47-3.39,3.33,3.33,0,0,0-3.45-3.35A3.39,3.39,0,0,0,68.69,21ZM72.15,19A1.85,1.85,0,0,1,74,21v0a1.83,1.83,0,0,1-1.83,1.9,1.85,1.85,0,0,1-1.85-1.94A1.83,1.83,0,0,1,72.15,19Z" fill="#008071"/><polygon points="82.48 17.7 80.94 17.7 80.94 21.46 78.1 17.73 78.08 17.7 76.67 17.7 76.67 24.22 78.21 24.22 78.21 20.34 81.14 24.18 81.17 24.22 82.48 24.22 82.48 17.7" fill="#008071"/><path d="M83.81,17.7v6.52h2.56a3.27,3.27,0,1,0,0-6.52Zm1.56,1.43h1a1.83,1.83,0,1,1,0,3.66h-1Z" fill="#008071"/><polygon points="95.84 19.11 95.84 17.7 90.88 17.7 90.88 24.22 95.88 24.22 95.88 22.81 92.43 22.81 92.43 21.64 95.43 21.64 95.43 20.23 92.43 20.23 92.43 19.11 95.84 19.11" fill="#008071"/><path d="M99.3,22.91a2.85,2.85,0,0,1-1.85-.75l-.06-.05-.93,1.11.06.05a4.13,4.13,0,0,0,2.75,1c1.49,0,2.42-.79,2.42-2.07s-.83-1.66-2.08-2c-1.09-.28-1.31-.41-1.31-.78S98.59,19,99,19a2.93,2.93,0,0,1,1.61.61l.06.05.82-1.18-.06,0a3.76,3.76,0,0,0-2.42-.83,2.08,2.08,0,0,0-2.3,2c0,1.35.94,1.7,2.17,2,1,.27,1.22.43,1.22.74S99.83,22.91,99.3,22.91Z" fill="#008071"/><polygon points="105.75 24.22 105.75 19.15 107.69 19.15 107.69 17.7 102.25 17.7 102.25 19.15 104.19 19.15 104.19 24.22 105.75 24.22" fill="#008071"/><path d="M110.12,22.18h1l1.36,2h1.83l-1.58-2.31a2.24,2.24,0,0,0,.75-3.54,2.63,2.63,0,0,0-1.91-.67h-3v6.52h1.56Zm0-3.05h1.31c.38,0,1,.1,1,.84,0,.51-.38.82-1,.82h-1.34Z" fill="#008071"/><path d="M120.7,21.37V17.7h-1.56v3.72c0,.93-.46,1.45-1.29,1.45s-1.29-.53-1.29-1.49V17.7H115v3.71a2.62,2.62,0,0,0,2.84,2.91A2.65,2.65,0,0,0,120.7,21.37Z" fill="#008071"/><path d="M126.65,22.15a2.2,2.2,0,0,1-1.61.73,1.82,1.82,0,0,1-1.77-1.94A1.8,1.8,0,0,1,125,19a2.28,2.28,0,0,1,1.57.7l.06.05,1-1.14,0,0a3.38,3.38,0,0,0-2.56-1,3.31,3.31,0,0,0-3.4,3.37v0A3.27,3.27,0,0,0,125,24.33a3.34,3.34,0,0,0,2.67-1.16l0-.06-1-1Z" fill="#008071"/><polygon points="128.14 19.15 130.08 19.15 130.08 24.22 131.64 24.22 131.64 19.15 133.58 19.15 133.58 17.7 128.14 17.7 128.14 19.15" fill="#008071"/><rect x="134.51" y="17.7" width="1.56" height="6.51" fill="#008071"/><polygon points="140.21 22.03 138.6 17.7 136.88 17.7 139.52 24.26 140.87 24.26 143.46 17.81 143.5 17.7 141.82 17.7 140.21 22.03" fill="#008071"/><polygon points="145.8 21.64 148.8 21.64 148.8 20.23 145.8 20.23 145.8 19.11 149.21 19.11 149.21 17.7 144.25 17.7 144.25 24.22 149.25 24.22 149.25 22.81 145.8 22.81 145.8 21.64" fill="#008071"/><polygon points="63.39 30.93 66.39 30.93 66.39 29.53 63.39 29.53 63.39 28.4 66.8 28.4 66.8 26.99 61.83 26.99 61.83 33.51 66.84 33.51 66.84 32.1 63.39 32.1 63.39 30.93" fill="#008071"/><polygon points="70.63 31.32 69.02 26.99 67.3 26.99 69.94 33.55 71.28 33.55 73.88 27.1 73.92 26.99 72.24 26.99 70.63 31.32" fill="#008071"/><path d="M78.27,27h-1.4l-2.79,6.56h1.6l.58-1.43h2.59l.58,1.43h1.64L78.29,27Zm0,3.74H76.83l.72-1.77Z" fill="#008071"/><polygon points="83.37 26.99 81.81 26.99 81.81 33.51 86.54 33.51 86.54 32.08 83.37 32.08 83.37 26.99" fill="#008071"/><path d="M91.44,30.71c0,.93-.46,1.45-1.29,1.45s-1.29-.53-1.29-1.49V27H87.3V30.7a2.61,2.61,0,0,0,2.83,2.91A2.65,2.65,0,0,0,93,30.66V27H91.44Z" fill="#008071"/><path d="M97.84,27h-1.4l-2.8,6.56h1.61l.58-1.43h2.58L99,33.51h1.64L97.86,27Zm0,3.74H96.39l.73-1.77Z" fill="#008071"/><polygon points="100.92 28.44 102.85 28.44 102.85 33.51 104.42 33.51 104.42 28.44 106.35 28.44 106.35 26.99 100.92 26.99 100.92 28.44" fill="#008071"/><rect x="107.29" y="26.99" width="1.56" height="6.51" fill="#008071"/><path d="M113.43,26.88A3.39,3.39,0,0,0,110,30.25v0a3.32,3.32,0,0,0,3.45,3.35,3.39,3.39,0,0,0,3.48-3.39A3.33,3.33,0,0,0,113.43,26.88Zm0,1.45a1.84,1.84,0,0,1,1.85,1.92v0a1.83,1.83,0,0,1-1.83,1.9,1.86,1.86,0,0,1-1.85-1.94A1.83,1.83,0,0,1,113.41,28.33Z" fill="#008071"/><polygon points="122.2 30.75 119.36 27.03 119.34 26.99 117.93 26.99 117.93 33.51 119.47 33.51 119.47 29.63 122.41 33.48 122.43 33.51 123.75 33.51 123.75 26.99 122.2 26.99 122.2 30.75" fill="#008071"/><polygon points="37.47 24.22 50.31 24.22 50.31 20.5 41.81 20.5 41.81 17.98 49.4 17.98 49.4 14.53 41.81 14.53 41.81 12.11 50.2 12.11 50.2 8.4 37.47 8.4 37.47 24.22" fill="#231f20"/><path d="M58.13,22a2.7,2.7,0,1,0-2.68,2.72A2.68,2.68,0,0,0,58.13,22" fill="#231f20"/><path d="M7.41,24.5c3.85,0,6.4-1.93,6.4-5.16v0c0-3-2.26-4.14-5.87-4.93-2.22-.5-2.77-.82-2.77-1.54v-.05c0-.58.53-1,1.59-1a7.78,7.78,0,0,1,4.43,1.56l2.19-3.1a10,10,0,0,0-6.51-2.1c-3.8,0-6.12,2.12-6.12,5.06v.05c0,3.23,2.59,4.18,6,5,2.17.52,2.7.86,2.7,1.54v0c0,.68-.64,1.09-1.84,1.09A8.21,8.21,0,0,1,2.44,19L0,21.87A11.1,11.1,0,0,0,7.41,24.5" fill="#231f20"/><path d="M19.79,16.27V12.08h2.09c1.56,0,2.53.7,2.53,2.06v0c0,1.24-1,2.08-2.51,2.08Zm-4.38,8h4.38V19.7H22c3.91,0,6.78-2,6.78-5.72v0c0-3.48-2.57-5.54-6.56-5.54h-6.8Z" fill="#231f20"/><rect x="30.33" y="8.4" width="4.38" height="15.82" fill="#231f20"/><path d="M.73,38.45h3.2c2.93,0,4.64,1.7,4.64,4.08v0c0,2.38-1.73,4.15-4.69,4.15H.73Zm2.29,2v4.21H4a2,2,0,0,0,2.29-2.09v0A2,2,0,0,0,4,40.47Z" fill="#231f20"/><path d="M9.82,38.45h2.29v8.26H9.82Z" fill="#231f20"/><path d="M13.34,42.6v0a4.28,4.28,0,0,1,4.44-4.29,4.76,4.76,0,0,1,3.34,1.19l-1.34,1.63a2.87,2.87,0,0,0-2-.78,2.16,2.16,0,0,0-2.11,2.25v0a2.18,2.18,0,0,0,2.24,2.3,2.32,2.32,0,0,0,1.32-.34v-1H17.62V41.88h3.79v3.71a5.53,5.53,0,0,1-3.59,1.28A4.23,4.23,0,0,1,13.34,42.6Z" fill="#231f20"/><path d="M22.74,38.45H25v8.26H22.74Z" fill="#231f20"/><path d="M28.55,40.46H26.08v-2h7.23v2H30.84v6.25H28.55Z" fill="#231f20"/><path d="M36.11,38.39h2.2l3.51,8.32H39.37l-.59-1.49H35.59L35,46.71H32.6Zm2,5-.92-2.33-.93,2.33Z" fill="#231f20"/><path d="M42.62,38.45h2.29V44.7h4v2H42.62Z" fill="#231f20"/><path d="M53.16,38.45h6.6v2H55.45v1.4h3.9v1.9h-3.9v3H53.16Z" fill="#231f20"/><path d="M60.54,42.6v0a4.45,4.45,0,0,1,8.89,0v0a4.45,4.45,0,0,1-8.89,0Zm6.54,0v0a2.11,2.11,0,1,0-4.21,0v0A2.15,2.15,0,0,0,65,44.81,2.1,2.1,0,0,0,67.08,42.6Z" fill="#231f20"/><path d="M70.61,38.45h3.9a3.65,3.65,0,0,1,2.69.89,2.59,2.59,0,0,1,.73,1.92v0a2.61,2.61,0,0,1-1.7,2.55l2,2.88H75.57l-1.66-2.5h-1v2.5H70.61Zm3.8,4c.77,0,1.23-.37,1.23-1v0c0-.66-.48-1-1.24-1H72.89v2Z" fill="#231f20"/><path d="M79,43.09V38.45H81.3V43c0,1.19.6,1.76,1.52,1.76s1.53-.55,1.53-1.7V38.45h2.31V43c0,2.65-1.52,3.83-3.86,3.83S79,45.67,79,43.09Z" fill="#231f20"/><path d="M88,38.45h2.41l2,3.2,2-3.2h2.42v8.26H94.51V42L92.4,45.2h-.05L90.26,42v4.73H88Z" fill="#231f20"/></svg>